<?xml version="1.0" encoding="utf-8" ?>
<svg baseProfile="full" height="300mm" version="1.1" viewBox="0,0,200,300" width="200mm" xmlns="http://www.w3.org/2000/svg" xmlns:ev="http://www.w3.org/2001/xml-events" xmlns:xlink="http://www.w3.org/1999/xlink"><defs /><rect fill="#222222" height="300" width="200" x="0" y="0" /><text fill="#FFFFFF" style="font-size:12px; font-family:Arial; font-weight:bold;" x="10" y="20">Total</text><text fill="#FFFFFF" style="font-size:4px; font-family:Arial" x="10" y="280">ATHLETE</text><text fill="#FFFFFF" style="font-size:9px; font-family:Arial" x="10" y="290">Lam</text><text fill="#FFFFFF" style="font-size:4px; font-family:Arial" x="65" y="280">SPECIAL TRACKS</text><rect fill="yellow" height="2.6" width="2.6" x="65" y="283" /><text fill="#FFFFFF" style="font-size:3px; font-family:Arial" x="70" y="285.5">Over 10.0 km</text><rect fill="red" height="2.6" width="2.6" x="65" y="287" /><text fill="#FFFFFF" style="font-size:3px; font-family:Arial" x="70" y="289.5">Over 20.0 km</text><text fill="#FFFFFF" style="font-size:4px; font-family:Arial" x="120" y="280">STATISTICS</text><text fill="#FFFFFF" style="font-size:3px; font-family:Arial" x="120" y="285">Number: 8</text><text fill="#FFFFFF" style="font-size:3px; font-family:Arial" x="120" y="290">Weekly: 4.0</text><text fill="#FFFFFF" style="font-size:3px; font-family:Arial" x="141" y="285">Total: 11.6 km</text><text fill="#FFFFFF" style="font-size:3px; font-family:Arial" x="141" y="290">Avg: 1.5 km</text><text fill="#FFFFFF" style="font-size:3px; font-family:Arial" x="167" y="285">Min: 1.4 km</text><text fill="#FFFFFF" style="font-size:3px; font-family:Arial" x="167" y="290">Max: 1.5 km</text><polyline fill="none" points="38.90297391661443,33.0 39.36979352659546,33.965290394145995 37.73592489189468,36.86115128867095 38.9496558776591,37.719181182736065 39.13638372160494,40.132382996962406 46.23204179271124,43.0282110288972 39.83661313657649,54.39686817803886 46.652179441647604,62.06521487736609 42.54416687437333,70.43056061479729 43.291078249923885,71.28853751346469 42.73089471808635,72.36100673233159 33.347820558352396,83.67542807059363 34.93500723224133,87.0 35.4951907643117,86.73189011431532" stroke="#4DD2FF" stroke-linecap="round" stroke-linejoin="round" stroke-width="0.5"><title>2024-11-28 1.5km</title><desc>1732753457000</desc></polyline><polyline fill="none" points="159.5244771083817,33.0 158.12055238056928,36.38166521250969 159.16217395290732,37.16204641200602 159.25274974154308,39.55520822072867 166.18179759173654,42.52063278318383 158.84515869175084,55.47466030361829 165.54776706942357,62.23768074862892 162.64934182493016,69.15668112947606 163.37394813611172,69.884991677769 162.73991761379875,71.08149968052749 153.8182024084963,81.64186563389376 155.04097555857152,83.98280482064001 154.40694503625855,85.12726019666297 154.85982398083434,87.0" stroke="#4DD2FF" stroke-linecap="round" stroke-linejoin="round" stroke-width="0.5"><title>2024-11-27 1.5km</title><desc>1732667293000</desc></polyline><polyline fill="none" points="37.367881963960826,93.0 39.44586988701485,94.00790822011186 38.01436709566042,97.45600099751027 39.07644981192425,98.30475890438538 38.984094792976975,100.47969492420088 44.57157343067229,102.54852833785117 46.32631878787652,103.87469941546442 44.66392844961956,105.57219362107571 38.79938475554809,116.60577531118179 45.63365614693612,123.87296263914322 42.67829554527998,130.87483123742277 43.417135695694014,131.56440427311463 43.04771562037058,132.3600643693353 33.67368121189065,143.6052678154665 35.19753902219236,147.0 35.56695909728296,146.3634893479175" stroke="#4DD2FF" stroke-linecap="round" stroke-linejoin="round" stroke-width="0.5"><title>2024-11-26 1.5km</title><desc>1732580565000</desc></polyline><polyline fill="none" points="159.27498773229308,93.0 157.6378632565029,95.2030898463563 158.85401286720298,96.22403089894215 159.2282127472572,99.01817557070171 163.76538629434071,100.30777596810367 166.15091053047217,101.9735052944161 164.2331361444667,104.23029173753457 159.74273758241907,112.93495183729101 166.618660380831,121.10216072172625 163.85893626441248,125.72302728483919 162.54923668387346,129.2692471271148 163.29763644421473,130.07520296180155 162.92343656392768,130.7736970538972 153.38133961940184,142.271855671308 154.64426421490498,144.36728833575035 154.8313641550485,147.0" stroke="#4DD2FF" stroke-linecap="round" stroke-linejoin="round" stroke-width="0.5"><title>2024-11-25 1.4km</title><desc>1732494030000</desc></polyline><polyline fill="none" points="38.493606673320755,153.0 39.49786889110692,153.604301611369 39.49786889110692,156.07643773703603 44.2322479179129,157.72452238871483 45.28433214616962,159.53740987041965 40.35866507771425,171.51330614311155 39.11529280804098,172.88667227874976 46.24077235348523,180.02812157629523 43.18016368965618,187.33427876007045 43.89749384531751,187.9934761970071 43.37145173107274,189.3118687295355 33.75922764651477,200.84767024056055 35.098243936896324,202.7702805919107 34.42873579170555,204.52808996167732 35.337353988783434,207.0" stroke="#4DD2FF" stroke-linecap="round" stroke-linejoin="round" stroke-width="0.5"><title>2024-11-22 1.4km</title><desc>1732235057000</desc></polyline><polyline fill="none" points="159.5422710108105,153.31549787783297 160.18309159576893,153.0 159.77113550552167,154.4197389789042 158.3064027405344,156.7333795799641 159.45072521315888,157.89019611355616 159.5422710108105,159.94091015972663 163.84492350858636,161.41321281308774 165.40120207169093,163.98973266780376 163.15833002515137,169.61596741509857 159.1760878197383,176.24117703421507 165.9504768587649,183.076624441077 163.0210113285575,189.96456352836685 163.61605901410803,190.70067389076576 163.29564872197807,191.75225835922174 154.04952314146794,202.84634809207637 155.2396185132675,204.2659542838228 155.51425590668805,206.1587566579692 156.52125968271866,206.52680078346748 156.10930359270424,207.0" stroke="#4DD2FF" stroke-linecap="round" stroke-linejoin="round" stroke-width="0.5"><title>2024-11-21 1.5km</title><desc>1732147849000</desc></polyline><polyline fill="none" points="39.81419464200735,213.0 37.95614106138237,216.6286274844315 38.931619190843776,217.64250434102723 38.97807053057477,219.7236140384921 44.923841988667846,222.01816160132876 46.27093083481304,223.2454737429507 38.74581383308396,236.26548321242444 45.62061208160594,243.46904228639323 42.694177691824734,250.45907085004728 43.43739912426099,251.31280860607512 42.136761617613956,253.50050545483828 33.72906916518696,262.9982086881646 33.72906916518696,264.01199862058274 35.02970667160116,265.02578665287 34.93680399260484,266.57314367056824 34.14713122090325,267.0 34.704547295114025,266.62650073016994" stroke="#4DD2FF" stroke-linecap="round" stroke-linejoin="round" stroke-width="0.5"><title>2024-11-19 1.5km</title><desc>1731974934000</desc></polyline><polyline fill="none" points="161.09719259501435,213.67223074205685 161.87741844030097,213.0 162.85270074685104,213.61621154408203 161.24348494107835,217.1454102274729 162.51135193975642,218.26578617369523 162.60888017038815,220.5625499509042 168.0216969724279,222.46717627893668 170.16731804725714,224.37179621699033 163.53539836150594,235.5753135685227 164.99832182191312,237.19980523135746 161.48730551754124,243.64170916582225 152.02706714277156,255.29296715499368 149.83268195274286,259.6621272615739 156.17201694636606,263.9752395193209 157.1472992526833,265.0395089331432 157.0497710222844,267.0" stroke="#4DD2FF" stroke-linecap="round" stroke-linejoin="round" stroke-width="0.5"><title>2024-11-18 1.4km</title><desc>1731889365000</desc></polyline></svg>