<?xml version="1.0" encoding="utf-8" ?>
<svg baseProfile="full" height="300mm" version="1.1" viewBox="0,0,200,300" width="200mm" xmlns="http://www.w3.org/2000/svg" xmlns:ev="http://www.w3.org/2001/xml-events" xmlns:xlink="http://www.w3.org/1999/xlink"><defs /><rect fill="#222222" height="300" width="200" x="0" y="0" /><text fill="#FFFFFF" style="font-size:12px; font-family:Arial; font-weight:bold;" x="10" y="20">Total</text><text fill="#FFFFFF" style="font-size:4px; font-family:Arial" x="10" y="280">ATHLETE</text><text fill="#FFFFFF" style="font-size:9px; font-family:Arial" x="10" y="290">Lam</text><text fill="#FFFFFF" style="font-size:4px; font-family:Arial" x="65" y="280">SPECIAL TRACKS</text><rect fill="yellow" height="2.6" width="2.6" x="65" y="283" /><text fill="#FFFFFF" style="font-size:3px; font-family:Arial" x="70" y="285.5">Over 10.0 km</text><rect fill="red" height="2.6" width="2.6" x="65" y="287" /><text fill="#FFFFFF" style="font-size:3px; font-family:Arial" x="70" y="289.5">Over 20.0 km</text><text fill="#FFFFFF" style="font-size:4px; font-family:Arial" x="120" y="280">STATISTICS</text><text fill="#FFFFFF" style="font-size:3px; font-family:Arial" x="120" y="285">Number: 23</text><text fill="#FFFFFF" style="font-size:3px; font-family:Arial" x="120" y="290">Weekly: 2.1</text><text fill="#FFFFFF" style="font-size:3px; font-family:Arial" x="141" y="285">Total: 44.5 km</text><text fill="#FFFFFF" style="font-size:3px; font-family:Arial" x="141" y="290">Avg: 1.9 km</text><text fill="#FFFFFF" style="font-size:3px; font-family:Arial" x="167" y="285">Min: 1.3 km</text><text fill="#FFFFFF" style="font-size:3px; font-family:Arial" x="167" y="290">Max: 6.5 km</text><polyline fill="none" points="15.292741002136609,32.0 15.955603379523382,32.91980347217759 16.97751621127827,33.58410164897941 17.714029963914072,33.60454153525643 18.846419858571608,32.94024347024242 19.398805173055734,32.89936347070761 20.17214461331605,32.95046346801246 21.000722585013136,33.37970259684516 22.832800544711063,33.90091950018541 23.54169503162848,33.890699582363595 24.1585252994264,33.63520135827275 25.033135380712338,33.80894020912092 25.429011522734072,34.31993538936513 26.892832606099546,35.33169950576121 27.095373888034374,36.31279605739837 27.68458489017212,37.058832924558374 27.951571125508053,37.692449680274876 29.028722488699714,37.86618272966007 29.59031422508997,38.91879530547885 29.73761697561713,39.49108569513919 29.765236241393723,39.75679103127186 29.443011474591913,40.2166642786251 29.51666284984094,40.696974478931224 29.783649085176876,40.85026456878404 30.520162837812677,40.676535785678425 30.98048393317731,42.0357014008041 30.879213292209897,42.22986667637451 31.321121543791378,44.28391190844559 31.58810777909821,44.67223496587394 32.03001603070879,44.94814796326682 32.04842887452105,45.356906808083295 31.772236217278987,46.000699201111274 32.002396764961304,46.879521407652646 33.16240592536633,48.013805792841595 33.47542427026201,49.44441965360602 34.386860039114254,51.181570993001515 34.5617820553889,51.385940106833004 34.96686461928766,51.457469215507444 35.417979292804375,52.42821724333044 36.034809560660506,53.08219049215404 37.02910312669701,54.7477627217595 37.94974531751359,55.91262789998291 38.64943338246667,57.271623169966915 38.8519746644306,58.33428558106243 39.3307086036657,59.27432535742264 39.680552636185894,59.60129401103768 40.38024070116808,59.72390702946723 40.64722693650401,60.56175934677594 40.76691042131279,62.053530891338596 42.3412085675227,64.05615433090134 42.99486452300334,65.60918654163106 43.86026818235405,66.28352330074267 44.265350746311015,67.45849508525134 44.70725899786339,68.0" stroke="#4DD2FF" stroke-linecap="round" stroke-linejoin="round" stroke-width="0.5"><title>2026-02-25 6.5km</title><desc>1771993433000</desc></polyline><polyline fill="none" points="58.66666666674428,40.562713026447454 61.20136054418981,41.36500602817978 60.13605442177504,44.7852908532368 61.97278911550529,44.363034950365545 61.899319727905095,44.827516420482425 62.229931972688064,44.447486164368456 63.478911564685404,45.41867392414133 64.21360544208437,44.7852908532368 64.61768707470037,46.178732368774945 63.25850340141915,49.81010403414257 64.94829931971617,49.00782690648339 68.1442176871933,49.81010403414257 69.65034013614058,48.5433499852079 70.01768707484007,49.00782690648339 70.97278911573812,47.31881749781314 72.29523809533566,47.361042814474786 71.81768707488663,47.78329575137468 72.18503401358612,47.48771873937221 71.3034013605211,46.43208488274831 70.27482993202284,46.05205605525407 71.11972789117135,45.967605158744846 70.5687074828893,46.85433873863076 70.97278911573812,47.234366851858795 71.63401360530406,45.75647784440662 73.17687074816786,45.249771863775095 73.50748299318366,46.178732368774945 74.02176870731637,45.334222902398324 74.05850340146571,45.967605158744846 74.90340136061423,45.291997385182185 74.97687074821442,48.881151432549814 74.09523809538223,48.67002555934596 75.12380952388048,48.79670109579456 75.01360544213094,44.02522992735612 76.33605442172848,45.249771863775095 77.69523809524253,43.77187598461751 79.53197278920561,45.75647784440662 80.22993197268806,45.249771863775095 80.56054421770386,43.05403899680823 81.58911564620212,42.84291024139384 81.33197278901935,42.37842661139439 87.17278911569156,40.35158303854405 89.81768707488663,40.01377484056866 94.66666666674428,41.153876436990686 94.11564625846222,43.265167647914495 93.05034013604745,43.22294192612753 93.89523809519596,44.363034950365545 93.05034013604745,48.20554827063461 87.0258503400255,59.98622515943134" stroke="#4DD2FF" stroke-linecap="round" stroke-linejoin="round" stroke-width="0.5"><title>2025-05-03 2.7km</title><desc>1746255885000</desc></polyline><polyline fill="none" points="133.3346436105203,32.27422902583203 133.189697084832,32.64639654921484 133.84195645072032,32.019587796661654 133.2984069790691,32.0 131.4322204600321,34.27217504805594 130.99738088273443,35.89794387170696 129.8378086766461,36.622681072956766 129.33049583656248,38.307197950955015 126.3228554270463,38.228848558981554 125.1270465896232,37.83710126236838 124.31172238220461,37.05360498387017 123.42392491200007,37.68040218639362 122.95284870325122,38.71853188992827 122.01069628586993,39.20821434324898 121.46714681421872,39.932942763422034 121.6483299714746,40.28551265108399 121.08666218421422,40.40303584589856 119.6190786107909,39.20821434324898 117.62606388167478,41.637026339245494 116.57520156993996,41.441155204491224 115.94106051966082,40.93188959690451 116.08600704546552,40.03087888893788 116.06788872985635,40.26592544701998 116.30342683405615,40.22675103471556 115.27068283816334,41.42156808328582 116.59331988566555,42.55761879190686 116.50272830703761,43.536969059932744 116.88321293715853,42.94935932033695 117.29993419873063,43.14522937392758 116.75638472707942,43.02770735863305 115.74175904679578,44.516315817818395 115.10761799663305,44.84929291588196 115.12573631235864,45.18226960822358 114.27417547360528,46.416238518228056 113.65815273916814,46.710039818353835 113.53132452908903,47.19970794989786 112.82471021602396,47.82648187788436 113.54944284481462,48.453254368316266 114.69089673517738,48.649120476751705 118.948700929177,53.780762498034164 120.03579987236299,53.60448631684994 121.08666218421422,54.15290072947391 121.81139481288847,53.917866115953075 122.1737611272838,53.389037496526726 123.53263480623718,53.310692428800394 123.9312377522001,53.5457275644585 123.71381796349306,53.80034873339173 124.31172238220461,54.36834894763888 124.51102385518607,55.15179558204545 124.85527185385581,55.19096785481088 125.16328322107438,54.46627989974513 124.89150848519057,53.212761062633945 124.92774511664174,54.40752133267233 125.30822974676266,55.014692583165015 126.28661879559513,55.367243012806284 126.39532868994866,53.50655505590839 127.04758805583697,55.210553989119944 127.48242763313465,54.87758951548312 126.84828658297192,55.328070765259326 126.01484405982774,55.053864875546424 126.75769500434399,55.24972625343071 126.8845232144231,56.48364970656985 127.2831261602696,56.62075196859951 126.9932331086602,57.09081634487666 128.42458005063236,58.85355055599939 129.09495773212984,59.01023749126762 129.2942592051113,58.67727764642041 129.65662551950663,58.99065162925399 130.96114425128326,58.40307511675928 129.18554931075778,63.808731389959576 129.421087415074,65.35598289193877 129.6928621509578,65.55183688802936 130.25452993821818,68.0 130.218293306767,67.39285759256745 129.4573240466416,67.29493127155001" stroke="#4DD2FF" stroke-linecap="round" stroke-linejoin="round" stroke-width="0.5"><title>2025-04-04 5.1km</title><desc>1743730371000</desc></polyline><polyline fill="none" points="152.58378378348425,43.966517618857324 153.7513513509184,43.184390605892986 152.0,43.74305281264242 152.8756756754592,41.28493704192806 154.14054054068401,45.86596669070423 153.36216216208413,44.07825000525918 154.91891891881824,42.17879793874454 153.5567567567341,41.73186757869553 155.7945945947431,41.843600185005926 157.0594594590366,39.72067877696827 155.4054054049775,40.502808179240674 157.74054054031149,43.0726581311319 155.89189189113677,42.513995593530126 157.0594594590366,41.843600185005926 155.9891891889274,39.27374744741246 156.18378378357738,42.06706536526326 157.74054054031149,41.843600185005926 157.15675675682724,43.0726581311319 160.07567567564547,47.31848442228511 158.12972972914577,47.09502027684357 152.77837837859988,40.391075440333225 159.78378378320485,42.84919314912986 155.11351351300254,42.625728122889996 159.68648648634553,48.882732206140645 157.44864864833653,50.111782522522844 157.83783783763647,51.56429481564555 162.02162162121385,52.34641604893841 173.9891891889274,60.72625255258754 180.4108108105138,50.223514303797856 188.0,53.910656897118315" stroke="#4DD2FF" stroke-linecap="round" stroke-linejoin="round" stroke-width="0.5"><title>2025-01-29 1.5km</title><desc>1738136859000</desc></polyline><polyline fill="none" points="40.43670485843904,72.0 30.838405653601512,88.53898444666993 32.630859119817615,89.80097862228286 30.08673161943443,95.51313319720794 19.563295141560957,108.0" stroke="#4DD2FF" stroke-linecap="round" stroke-linejoin="round" stroke-width="0.5"><title>2025-01-21 1.3km</title><desc>1737419096000</desc></polyline><polyline fill="none" points="83.7222738036653,72.0 78.09119542362168,81.43347616610117 79.06322681065649,82.51157320771017 77.52138392091729,85.82285264166421 71.45456733298488,93.1768727558956 69.61105952982325,96.52656373163336 74.83991802565288,100.41524937865324 74.43769814143889,101.33928779567941 75.40972952835727,102.68683989910642 74.37066149397288,108.0" stroke="#4DD2FF" stroke-linecap="round" stroke-linejoin="round" stroke-width="0.5"><title>2025-01-20 1.8km</title><desc>1737332628000</desc></polyline><polyline fill="none" points="122.34335766360164,72.0 130.65915328729898,80.77274449472316 127.03867083904333,89.2854441155796 127.83065137453377,90.13020983309252 127.20838095364161,91.68977446493227 116.00751337921247,104.88094427576289 117.64804448839277,108.0" stroke="#4DD2FF" stroke-linecap="round" stroke-linejoin="round" stroke-width="0.5"><title>2025-01-18 1.5km</title><desc>1737163887000</desc></polyline><polyline fill="none" points="173.49860247480683,72.0 174.74693011853378,73.01891451870324 169.3922615420306,82.26449626477552 170.34493263845798,82.67959877403337 174.28701993403956,87.35890498731169 172.21742410387378,92.00041830498958 172.54593137849588,93.13248617993668 165.71298006619327,101.3964801664988 166.89560625492595,103.58508794079535 167.28981498454232,102.71719325269805 167.25696425698698,104.33977737335954 166.79705407249276,103.81149492692202 165.25306988158263,108.0" stroke="#4DD2FF" stroke-linecap="round" stroke-linejoin="round" stroke-width="0.5"><title>2025-01-03 1.8km</title><desc>1735863068000</desc></polyline><polyline fill="none" points="34.756293133832514,112.0 25.243706865934655,128.62593535979977 33.939261184539646,137.7432110615773 30.204257987439632,146.25702717818785 30.90457108663395,148.0" stroke="#4DD2FF" stroke-linecap="round" stroke-linejoin="round" stroke-width="0.5"><title>2024-12-09 1.4km</title><desc>1733703753000</desc></polyline><polyline fill="none" points="81.26870663953014,112.0 72.06462669395842,127.95699999853969 77.88070175168104,133.40564299898688 80.42170541756786,137.10291074647103 77.03370052948594,144.69197414023802 77.59836801118217,145.98924116702983 76.69490004098043,148.0" stroke="#4DD2FF" stroke-linecap="round" stroke-linejoin="round" stroke-width="0.5"><title>2024-12-07 1.5km</title><desc>1733536100000</desc></polyline><polyline fill="none" points="126.7906665764749,112.0 119.03954849974252,125.45219089143211 127.62711816723458,134.74044573889114 124.11402148520574,140.50550260342425 122.21806454565376,148.0" stroke="#4DD2FF" stroke-linecap="round" stroke-linejoin="round" stroke-width="0.5"><title>2024-12-06 1.5km</title><desc>1733444217000</desc></polyline><polyline fill="none" points="173.20197208994068,112.0 174.6028348794207,114.06904084476992 169.2395316285547,124.7819276174705 175.20320464624092,131.12678305254667 172.56157767190598,137.01178913214244 173.2820213921368,137.60948090493912 172.6816516253166,138.6669337019266 164.79679535375908,148.0" stroke="#4DD2FF" stroke-linecap="round" stroke-linejoin="round" stroke-width="0.5"><title>2024-12-05 1.6km</title><desc>1733358481000</desc></polyline><polyline fill="none" points="33.65060148318298,152.0 34.49304797919467,153.16132126009325 25.50695202103816,169.0970213187975 28.42743320739828,171.032504997449 33.931416981853545,177.48407588509144 30.393141698325053,185.54844998533372 31.235588194569573,186.8387406123802 30.561630997573957,188.0" stroke="#4DD2FF" stroke-linecap="round" stroke-linejoin="round" stroke-width="0.5"><title>2024-12-04 1.5km</title><desc>1733270790000</desc></polyline><polyline fill="none" points="77.482492179377,152.0 80.40821125893854,154.06827619019896 72.92512207431719,167.05948666785844 74.44424544274807,169.32161140767857 73.31896887347102,171.583728335856 79.5079900037963,178.37003225059016 76.0758964677807,186.6427647927776 76.8635900663212,188.0" stroke="#4DD2FF" stroke-linecap="round" stroke-linejoin="round" stroke-width="0.5"><title>2024-12-03 1.6km</title><desc>1733185498000</desc></polyline><polyline fill="none" points="119.60499058035202,152.0 126.12307231640443,154.33617126120953 127.5831226252485,155.59410590858897 123.15082704462111,162.2431457430357 119.08354404149577,170.3896177993156 120.7000283121597,171.2881190534099 126.85309747071005,178.4760812150198 123.51583962212317,186.20304562628735 124.35015408415347,187.04162499582162 123.82870754553005,188.0" stroke="#4DD2FF" stroke-linecap="round" stroke-linejoin="round" stroke-width="0.5"><title>2024-12-02 1.5km</title><desc>1733098874000</desc></polyline><polyline fill="none" points="173.6667230501771,152.0 165.81764402100816,165.952698593901 174.18235597922467,175.36402385483962 169.140611785464,185.6307727046078 170.05729254777543,186.68376365251606 169.36978197586723,188.0" stroke="#4DD2FF" stroke-linecap="round" stroke-linejoin="round" stroke-width="0.5"><title>2024-11-28 1.5km</title><desc>1732753457000</desc></polyline><polyline fill="none" points="34.623791731195524,192.0 25.376208268571645,208.32811050210148 33.824617851525545,216.85266743850661 30.171251545427367,225.57383177173324 31.084593121893704,226.4918424130883 30.285419242223725,228.0" stroke="#4DD2FF" stroke-linecap="round" stroke-linejoin="round" stroke-width="0.5"><title>2024-11-27 1.5km</title><desc>1732667293000</desc></polyline><polyline fill="none" points="72.62545718648471,192.0 78.93495843932033,194.3361712610931 80.91645470052026,195.83371221256675 79.03924771631137,197.75055923993932 72.41687863273546,210.20991738914745 80.13428512378596,218.4161818823195 76.79702826286666,226.32284274994163 77.63134247809649,227.10152347787516 77.21418537036516,228.0" stroke="#4DD2FF" stroke-linecap="round" stroke-linejoin="round" stroke-width="0.5"><title>2024-11-26 1.5km</title><desc>1732580565000</desc></polyline><polyline fill="none" points="124.02422802872024,192.0 126.84307838464156,193.96830601571128 124.5769437844865,196.63503359386232 119.27087252610363,206.92087930021808 127.39579414087348,216.57164675975218 124.13477117964067,222.03188529325416 122.58716706279665,226.22226949216565 123.47151227248833,227.17462573200464 123.02933966740966,228.0" stroke="#4DD2FF" stroke-linecap="round" stroke-linejoin="round" stroke-width="0.5"><title>2024-11-25 1.4km</title><desc>1732494030000</desc></polyline><polyline fill="none" points="173.151250700932,192.0 167.1956759816967,206.4799362385529 165.6923270234838,208.1404594781925 174.3076729765162,216.7751142985653 170.6071216946002,225.60891577450093 171.47443840117194,226.40594479331048 170.8384061497636,228.0" stroke="#4DD2FF" stroke-linecap="round" stroke-linejoin="round" stroke-width="0.5"><title>2024-11-22 1.4km</title><desc>1732235057000</desc></polyline><polyline fill="none" points="31.52078225486912,232.0 33.36744642187841,235.05727201036643 30.706077475566417,241.73330440546852 25.980789754306898,249.59471012849826 34.01921024546027,257.7055818522931 30.543136519845575,265.8787396652042 31.24921399517916,266.75220066471957 30.86901843175292,268.0" stroke="#4DD2FF" stroke-linecap="round" stroke-linejoin="round" stroke-width="0.5"><title>2024-11-21 1.5km</title><desc>1732147849000</desc></polyline><polyline fill="none" points="79.42875159834512,232.0 80.96914511802606,233.403429087135 72.36418821522966,248.291785020323 80.22550686728209,256.5290410477319 76.87913473835215,264.5221253448399 77.72900702501647,265.4983728363877 76.24173052306287,268.0" stroke="#4DD2FF" stroke-linecap="round" stroke-linejoin="round" stroke-width="0.5"><title>2024-11-19 1.5km</title><desc>1731974934000</desc></polyline><polyline fill="none" points="131.09731966420077,232.0 133.17400901741348,233.84343078715028 126.75515101687051,244.6870161126135 128.17107557598501,246.25931822124403 124.7728566348087,252.4942650491139 115.61654448742047,263.7712065835949 113.4926576493308,268.0" stroke="#4DD2FF" stroke-linecap="round" stroke-linejoin="round" stroke-width="0.5"><title>2024-11-18 1.4km</title><desc>1731889365000</desc></polyline></svg>