<?xml version="1.0" encoding="utf-8" ?>
<svg baseProfile="full" height="300mm" version="1.1" viewBox="0,0,200,300" width="200mm" xmlns="http://www.w3.org/2000/svg" xmlns:ev="http://www.w3.org/2001/xml-events" xmlns:xlink="http://www.w3.org/1999/xlink"><defs /><rect fill="#222222" height="300" width="200" x="0" y="0" /><text fill="#FFFFFF" style="font-size:12px; font-family:Arial; font-weight:bold;" x="10" y="20">Total</text><text fill="#FFFFFF" style="font-size:4px; font-family:Arial" x="10" y="280">ATHLETE</text><text fill="#FFFFFF" style="font-size:9px; font-family:Arial" x="10" y="290">Lam</text><text fill="#FFFFFF" style="font-size:4px; font-family:Arial" x="65" y="280">SPECIAL TRACKS</text><rect fill="yellow" height="2.6" width="2.6" x="65" y="283" /><text fill="#FFFFFF" style="font-size:3px; font-family:Arial" x="70" y="285.5">Over 10.0 km</text><rect fill="red" height="2.6" width="2.6" x="65" y="287" /><text fill="#FFFFFF" style="font-size:3px; font-family:Arial" x="70" y="289.5">Over 20.0 km</text><text fill="#FFFFFF" style="font-size:4px; font-family:Arial" x="120" y="280">STATISTICS</text><text fill="#FFFFFF" style="font-size:3px; font-family:Arial" x="120" y="285">Number: 9</text><text fill="#FFFFFF" style="font-size:3px; font-family:Arial" x="120" y="290">Weekly: 3.0</text><text fill="#FFFFFF" style="font-size:3px; font-family:Arial" x="141" y="285">Total: 13.1 km</text><text fill="#FFFFFF" style="font-size:3px; font-family:Arial" x="141" y="290">Avg: 1.5 km</text><text fill="#FFFFFF" style="font-size:3px; font-family:Arial" x="167" y="285">Min: 1.4 km</text><text fill="#FFFFFF" style="font-size:3px; font-family:Arial" x="167" y="290">Max: 1.5 km</text><polyline fill="none" points="34.40748587111011,33.0 44.18460847483948,36.5042568918434 46.374683937989175,38.39115886291256 39.726240567397326,48.36471861455357 33.625316062476486,60.5844266989734 36.0500424685888,61.932178580143955 45.279646206181496,72.7141218225006 40.273759433533996,84.30456843943102 41.52523112669587,85.56243749370333 40.74306131852791,87.0" stroke="#4DD2FF" stroke-linecap="round" stroke-linejoin="round" stroke-width="0.5"><title>2024-12-02 1.5km</title><desc>1733098874000</desc></polyline><polyline fill="none" points="105.50008457479998,33.0 93.72646603127941,53.92904789093882 106.27353396825492,68.04603578231763 98.71091767773032,83.44615905691171 100.08593882108107,85.0256454788032 99.05467296298593,87.0" stroke="#4DD2FF" stroke-linecap="round" stroke-linejoin="round" stroke-width="0.5"><title>2024-11-28 1.5km</title><desc>1732753457000</desc></polyline><polyline fill="none" points="166.9356875969097,33.0 153.0643124030903,57.49216575315222 165.73692677775398,70.27900115773082 160.2568773184903,83.36074765765807 161.62688968330622,84.73776361969067 160.42812886368483,87.0" stroke="#4DD2FF" stroke-linecap="round" stroke-linejoin="round" stroke-width="0.5"><title>2024-11-27 1.5km</title><desc>1732667293000</desc></polyline><polyline fill="none" points="33.93818578030914,123.0 43.40243765944615,126.50425689166877 46.37468205112964,128.75056831893744 43.55887157469988,131.6258388599963 33.62531794933602,150.31487608375028 45.20142768602818,162.62427282350836 40.19554239464924,174.48426412494155 41.44701371761039,175.65228521684185 40.82127805612981,177.0" stroke="#4DD2FF" stroke-linecap="round" stroke-linejoin="round" stroke-width="0.5"><title>2024-11-26 1.5km</title><desc>1732580565000</desc></polyline><polyline fill="none" points="101.03634204249829,123.0 105.2646175767295,125.95245902356692 101.86541567649692,129.95255039067706 93.9063087888062,145.3813189503271 106.09369121072814,159.85747013957007 101.20215676911175,168.04782793985214 98.88075059372932,174.33340423816117 100.20726840849966,175.76193859794876 99.54400950111449,177.0" stroke="#4DD2FF" stroke-linecap="round" stroke-linejoin="round" stroke-width="0.5"><title>2024-11-25 1.4km</title><desc>1732494030000</desc></polyline><polyline fill="none" points="164.72687605116516,123.0 155.7935139723122,144.71990435780026 153.53849053522572,147.21068921725964 166.46150946477428,160.16267144784797 160.9106825417839,173.4133736617514 162.21165760187432,174.60891718999483 161.2576092244126,177.0" stroke="#4DD2FF" stroke-linecap="round" stroke-linejoin="round" stroke-width="0.5"><title>2024-11-22 1.4km</title><desc>1732235057000</desc></polyline><polyline fill="none" points="42.28117338242009,213.0 45.051169632934034,217.58590801560786 41.059116213116795,227.59995660826098 33.97118463134393,239.3920651928638 46.02881536819041,251.55837277852697 40.81470477953553,263.8181094978354 41.87382099265233,265.12830099707935 41.30352764762938,267.0" stroke="#4DD2FF" stroke-linecap="round" stroke-linejoin="round" stroke-width="0.5"><title>2024-11-21 1.5km</title><desc>1732147849000</desc></polyline><polyline fill="none" points="104.14312739809975,213.0 106.45371767738834,215.1051436307025 93.54628232307732,237.4376775305136 105.3382603013888,249.79356157156872 100.31870210776106,261.783188017318 101.59351053787395,263.2475592546398 99.36259578540921,267.0" stroke="#4DD2FF" stroke-linecap="round" stroke-linejoin="round" stroke-width="0.5"><title>2024-11-19 1.5km</title><desc>1731974934000</desc></polyline><polyline fill="none" points="171.64597949641757,213.0 174.7610135260038,215.76514618081274 165.13272652565502,232.03052416897845 167.25661336421035,234.38897733198246 162.15928495209664,243.74139757367084 148.42481673136353,260.65680987545056 145.2389864739962,267.0" stroke="#4DD2FF" stroke-linecap="round" stroke-linejoin="round" stroke-width="0.5"><title>2024-11-18 1.4km</title><desc>1731889365000</desc></polyline></svg>