<?xml version="1.0" encoding="utf-8" ?>
<svg baseProfile="full" height="300mm" version="1.1" viewBox="0,0,200,300" width="200mm" xmlns="http://www.w3.org/2000/svg" xmlns:ev="http://www.w3.org/2001/xml-events" xmlns:xlink="http://www.w3.org/1999/xlink"><defs /><rect fill="#222222" height="300" width="200" x="0" y="0" /><text fill="#FFFFFF" style="font-size:12px; font-family:Arial; font-weight:bold;" x="10" y="20">Total</text><text fill="#FFFFFF" style="font-size:4px; font-family:Arial" x="10" y="280">ATHLETE</text><text fill="#FFFFFF" style="font-size:9px; font-family:Arial" x="10" y="290">Lam</text><text fill="#FFFFFF" style="font-size:4px; font-family:Arial" x="65" y="280">SPECIAL TRACKS</text><rect fill="yellow" height="2.6" width="2.6" x="65" y="283" /><text fill="#FFFFFF" style="font-size:3px; font-family:Arial" x="70" y="285.5">Over 10.0 km</text><rect fill="red" height="2.6" width="2.6" x="65" y="287" /><text fill="#FFFFFF" style="font-size:3px; font-family:Arial" x="70" y="289.5">Over 20.0 km</text><text fill="#FFFFFF" style="font-size:4px; font-family:Arial" x="120" y="280">STATISTICS</text><text fill="#FFFFFF" style="font-size:3px; font-family:Arial" x="120" y="285">Number: 8</text><text fill="#FFFFFF" style="font-size:3px; font-family:Arial" x="120" y="290">Weekly: 4.0</text><text fill="#FFFFFF" style="font-size:3px; font-family:Arial" x="141" y="285">Total: 11.6 km</text><text fill="#FFFFFF" style="font-size:3px; font-family:Arial" x="141" y="290">Avg: 1.5 km</text><text fill="#FFFFFF" style="font-size:3px; font-family:Arial" x="167" y="285">Min: 1.4 km</text><text fill="#FFFFFF" style="font-size:3px; font-family:Arial" x="167" y="290">Max: 1.5 km</text><polyline fill="none" points="45.500084574799985,33.0 33.726466031279415,53.92904789093882 46.273533968254924,68.04603578231763 38.71091767773032,83.44615905691171 40.08593882108107,85.0256454788032 39.05467296298593,87.0" stroke="#4DD2FF" stroke-linecap="round" stroke-linejoin="round" stroke-width="0.5"><title>2024-11-28 1.5km</title><desc>1732753457000</desc></polyline><polyline fill="none" points="166.9356875969097,33.0 153.0643124030903,57.49216575315222 165.73692677775398,70.27900115773082 160.2568773184903,83.36074765765807 161.62688968330622,84.73776361969067 160.42812886368483,87.0" stroke="#4DD2FF" stroke-linecap="round" stroke-linejoin="round" stroke-width="0.5"><title>2024-11-27 1.5km</title><desc>1732667293000</desc></polyline><polyline fill="none" points="33.93818578030914,93.0 43.40243765944615,96.50425689166877 46.37468205112964,98.75056831893744 43.55887157469988,101.62583885999629 33.62531794933602,120.31487608375028 45.20142768602818,132.62427282350836 40.19554239464924,144.48426412494155 41.44701371761039,145.65228521684185 40.82127805612981,147.0" stroke="#4DD2FF" stroke-linecap="round" stroke-linejoin="round" stroke-width="0.5"><title>2024-11-26 1.5km</title><desc>1732580565000</desc></polyline><polyline fill="none" points="161.0363420424983,93.0 165.2646175767295,95.95245902356692 161.86541567649692,99.95255039067706 153.9063087888062,115.38131895032711 166.09369121072814,129.85747013957007 161.20215676911175,138.04782793985214 158.88075059372932,144.33340423816117 160.20726840849966,145.76193859794876 159.5440095011145,147.0" stroke="#4DD2FF" stroke-linecap="round" stroke-linejoin="round" stroke-width="0.5"><title>2024-11-25 1.4km</title><desc>1732494030000</desc></polyline><polyline fill="none" points="44.72687605116516,153.0 35.79351397231221,174.71990435780026 33.53849053522572,177.21068921725964 46.46150946477428,190.16267144784797 40.9106825417839,203.4133736617514 42.21165760187432,204.60891718999483 41.25760922441259,207.0" stroke="#4DD2FF" stroke-linecap="round" stroke-linejoin="round" stroke-width="0.5"><title>2024-11-22 1.4km</title><desc>1732235057000</desc></polyline><polyline fill="none" points="162.2811733824201,153.0 165.05116963293403,157.58590801560786 161.0591162131168,167.59995660826098 153.97118463134393,179.3920651928638 166.0288153681904,191.55837277852697 160.81470477953553,203.8181094978354 161.87382099265233,205.12830099707935 161.30352764762938,207.0" stroke="#4DD2FF" stroke-linecap="round" stroke-linejoin="round" stroke-width="0.5"><title>2024-11-21 1.5km</title><desc>1732147849000</desc></polyline><polyline fill="none" points="44.14312739809975,213.0 46.45371767738834,215.1051436307025 33.54628232307732,237.4376775305136 45.3382603013888,249.79356157156872 40.318702107761055,261.783188017318 41.593510537873954,263.2475592546398 39.36259578540921,267.0" stroke="#4DD2FF" stroke-linecap="round" stroke-linejoin="round" stroke-width="0.5"><title>2024-11-19 1.5km</title><desc>1731974934000</desc></polyline><polyline fill="none" points="171.64597949641757,213.0 174.7610135260038,215.76514618081274 165.13272652565502,232.03052416897845 167.25661336421035,234.38897733198246 162.15928495209664,243.74139757367084 148.42481673136353,260.65680987545056 145.2389864739962,267.0" stroke="#4DD2FF" stroke-linecap="round" stroke-linejoin="round" stroke-width="0.5"><title>2024-11-18 1.4km</title><desc>1731889365000</desc></polyline></svg>