<?xml version="1.0" encoding="utf-8" ?>
<svg baseProfile="full" height="300mm" version="1.1" viewBox="0,0,200,300" width="200mm" xmlns="http://www.w3.org/2000/svg" xmlns:ev="http://www.w3.org/2001/xml-events" xmlns:xlink="http://www.w3.org/1999/xlink"><defs /><rect fill="#222222" height="300" width="200" x="0" y="0" /><text fill="#FFFFFF" style="font-size:12px; font-family:Arial; font-weight:bold;" x="10" y="20">Total</text><text fill="#FFFFFF" style="font-size:4px; font-family:Arial" x="10" y="280">ATHLETE</text><text fill="#FFFFFF" style="font-size:9px; font-family:Arial" x="10" y="290">Lam</text><text fill="#FFFFFF" style="font-size:4px; font-family:Arial" x="65" y="280">SPECIAL TRACKS</text><rect fill="yellow" height="2.6" width="2.6" x="65" y="283" /><text fill="#FFFFFF" style="font-size:3px; font-family:Arial" x="70" y="285.5">Over 10.0 km</text><rect fill="red" height="2.6" width="2.6" x="65" y="287" /><text fill="#FFFFFF" style="font-size:3px; font-family:Arial" x="70" y="289.5">Over 20.0 km</text><text fill="#FFFFFF" style="font-size:4px; font-family:Arial" x="120" y="280">STATISTICS</text><text fill="#FFFFFF" style="font-size:3px; font-family:Arial" x="120" y="285">Number: 17</text><text fill="#FFFFFF" style="font-size:3px; font-family:Arial" x="120" y="290">Weekly: 2.8</text><text fill="#FFFFFF" style="font-size:3px; font-family:Arial" x="141" y="285">Total: 25.5 km</text><text fill="#FFFFFF" style="font-size:3px; font-family:Arial" x="141" y="290">Avg: 1.5 km</text><text fill="#FFFFFF" style="font-size:3px; font-family:Arial" x="167" y="285">Min: 1.4 km</text><text fill="#FFFFFF" style="font-size:3px; font-family:Arial" x="167" y="290">Max: 1.8 km</text><polyline fill="none" points="31.386277371784672,32.25 40.741547448327765,42.119337556592654 36.66850469401106,51.69612463010708 37.559482796583325,52.64648606226547 36.85942857316695,54.40099627309246 24.258452551672235,69.24106231023325 26.104050049558282,72.75" stroke="#4DD2FF" stroke-linecap="round" stroke-linejoin="round" stroke-width="0.5"><title>2025-01-18 1.5km</title><desc>1737163887000</desc></polyline><polyline fill="none" points="81.43592778407037,32.25 82.84029638324864,33.39627883353387 76.81629423471168,43.79755829786882 77.88804921833798,44.26454862076207 82.32289742585272,49.528768110700184 79.99460211675614,54.750470593106 80.36417280090973,56.02404695239966 72.67710257438011,65.32104018729297 74.0075570368208,67.78322393336566 74.45104185747914,66.80684240927803 74.41408478911035,68.63224954501493 73.89668583148159,68.03793179275817 72.15970361675136,72.75" stroke="#4DD2FF" stroke-linecap="round" stroke-linejoin="round" stroke-width="0.5"><title>2025-01-03 1.8km</title><desc>1735863068000</desc></polyline><polyline fill="none" points="127.85082977591082,32.25 117.149170224322,50.95417727984022 126.93166883289814,61.21111244428903 122.72979023610242,70.78915557550499 123.51764247287065,72.75" stroke="#4DD2FF" stroke-linecap="round" stroke-linejoin="round" stroke-width="0.5"><title>2024-12-09 1.4km</title><desc>1733703753000</desc></polyline><polyline fill="none" points="172.67729496955872,32.25 162.32270503067411,50.20162499835715 168.86578947049566,56.331348373845685 171.72441859473474,60.49077458976535 167.91291309567168,69.02847090776777 168.54816401237622,70.48789631290128 167.53176254592836,72.75" stroke="#4DD2FF" stroke-linecap="round" stroke-linejoin="round" stroke-width="0.5"><title>2024-12-07 1.5km</title><desc>1733536100000</desc></polyline><polyline fill="none" points="36.38949989853427,81.0 27.669492062181234,96.13371475285385 37.330507937818766,106.58300145628164 33.378274170681834,113.06869042885955 31.245322613744065,121.5" stroke="#4DD2FF" stroke-linecap="round" stroke-linejoin="round" stroke-width="0.5"><title>2024-12-06 1.5km</title><desc>1733444217000</desc></polyline><polyline fill="none" points="81.10221860115416,81.0 82.67818923923187,83.32767095032614 76.6444730819203,95.37966856965795 83.35360522684641,102.5176309341332 80.38177488092333,109.13826277363114 81.19227406615391,109.81066601804923 80.51685807830654,111.00030041468563 71.64639477292076,121.5" stroke="#4DD2FF" stroke-linecap="round" stroke-linejoin="round" stroke-width="0.5"><title>2024-12-05 1.6km</title><desc>1733358481000</desc></polyline><polyline fill="none" points="126.60692666843534,81.0 127.55467897630297,82.30648641765583 117.44532102369703,100.234148983669 120.73086235835217,102.41156812215922 126.92284410470165,109.6695853707497 122.94228441058658,118.74200623354409 123.89003671891987,120.19358318892773 123.1318348722998,121.5" stroke="#4DD2FF" stroke-linecap="round" stroke-linejoin="round" stroke-width="0.5"><title>2024-12-04 1.5km</title><desc>1733270790000</desc></polyline><polyline fill="none" points="168.41780370194465,81.0 171.70923766633496,83.32681071397383 163.29076233366504,97.94192250131164 164.99977612309158,100.4868128336966 163.73383998288773,103.03169437783072 170.69648875435814,110.6662862818921 166.83538352628238,119.973110391933 167.72153882472776,121.5" stroke="#4DD2FF" stroke-linecap="round" stroke-linejoin="round" stroke-width="0.5"><title>2024-12-03 1.6km</title><desc>1733185498000</desc></polyline><polyline fill="none" points="28.305614402983338,129.75 35.638456356013194,132.3781926688971 37.28101295325905,133.79336914722808 32.29468042543158,141.27353896095883 27.71898704674095,150.43832002423005 29.537531851325184,151.44913393515162 36.45973465451971,159.53559136693366 32.70531957503408,168.22842632961692 33.64392334478907,169.1718281203066 33.057295988779515,170.25" stroke="#4DD2FF" stroke-linecap="round" stroke-linejoin="round" stroke-width="0.5"><title>2024-12-02 1.5km</title><desc>1733098874000</desc></polyline><polyline fill="none" points="81.6250634312164,129.75 72.79484952357598,145.4467859182041 82.20515047642402,156.03452683676733 76.53318825829774,167.58461929269833 77.56445411592722,168.76923410908785 76.79100472247228,170.25" stroke="#4DD2FF" stroke-linecap="round" stroke-linejoin="round" stroke-width="0.5"><title>2024-11-28 1.5km</title><desc>1732753457000</desc></polyline><polyline fill="none" points="127.70176569768228,129.75 117.29823430231772,148.11912431486417 126.80269508319907,157.7092508682981 122.69265798875131,167.520560743229 123.72016726247966,168.55332271481166 122.82109664776362,170.25" stroke="#4DD2FF" stroke-linecap="round" stroke-linejoin="round" stroke-width="0.5"><title>2024-11-27 1.5km</title><desc>1732667293000</desc></polyline><polyline fill="none" points="162.9536393347662,129.75 170.05182824423537,132.37819266878068 172.2810115381144,134.06292623921763 170.16915368079208,136.21937914495356 162.7189884618856,150.2361570628127 171.4010707642883,159.46820461761672 167.64665679563768,168.3631980937207 168.58526028785855,169.23921391263139 168.1159585416317,170.25" stroke="#4DD2FF" stroke-linecap="round" stroke-linejoin="round" stroke-width="0.5"><title>2024-11-26 1.5km</title><desc>1732580565000</desc></polyline><polyline fill="none" points="33.27725653233938,178.5 36.448463182896376,180.7143442676752 33.89906175760552,183.71441279305145 27.92973159183748,195.28598921274533 37.07026840839535,206.143102604663 33.401617577299476,212.2858709549182 31.66056294552982,217.00005317863543 32.655451306607574,218.07145394844702 32.158007126068696,219.0" stroke="#4DD2FF" stroke-linecap="round" stroke-linejoin="round" stroke-width="0.5"><title>2024-11-25 1.4km</title><desc>1732494030000</desc></polyline><polyline fill="none" points="81.04515703837387,178.5 74.34513547946699,194.7899282683502 72.65386790130287,196.65801691293018 82.3461320984643,206.37200358585687 78.18301190645434,216.3100302463281 79.15874320128933,217.20668789249612 78.44320691842586,219.0" stroke="#4DD2FF" stroke-linecap="round" stroke-linejoin="round" stroke-width="0.5"><title>2024-11-22 1.4km</title><desc>1732235057000</desc></polyline><polyline fill="none" points="124.21088003693148,178.5 126.28837722470053,181.939431011735 123.29433715995401,189.44996745616663 117.97838847362436,198.2940488946042 127.02161152637564,207.41877958388068 123.11102858488448,216.613582123362 123.90536574460566,217.59622574783862 123.47764573572204,219.0" stroke="#4DD2FF" stroke-linecap="round" stroke-linejoin="round" stroke-width="0.5"><title>2024-11-21 1.5km</title><desc>1732147849000</desc></polyline><polyline fill="none" points="170.60734554822557,178.5 172.34028825792484,180.07885772304144 162.65971174207516,196.82825814792886 171.50369522557594,206.0951711787493 167.73902658070438,215.08739101304673 168.69513290328905,216.18566944100894 167.02194683859125,219.0" stroke="#4DD2FF" stroke-linecap="round" stroke-linejoin="round" stroke-width="0.5"><title>2024-11-19 1.5km</title><desc>1731974934000</desc></polyline><polyline fill="none" points="41.2344846224878,227.25 43.57076014461927,229.3238596356241 36.349544894183055,241.52289312670473 37.94246002309956,243.2917329989723 34.11946371430531,250.30604818026768 23.81861254852265,262.9926074066316 21.42923985561356,267.75" stroke="#4DD2FF" stroke-linecap="round" stroke-linejoin="round" stroke-width="0.5"><title>2024-11-18 1.4km</title><desc>1731889365000</desc></polyline></svg>