<?xml version="1.0" encoding="utf-8" ?>
<svg baseProfile="full" height="300mm" version="1.1" viewBox="0,0,200,300" width="200mm" xmlns="http://www.w3.org/2000/svg" xmlns:ev="http://www.w3.org/2001/xml-events" xmlns:xlink="http://www.w3.org/1999/xlink"><defs /><rect fill="#222222" height="300" width="200" x="0" y="0" /><text fill="#FFFFFF" style="font-size:12px; font-family:Arial; font-weight:bold;" x="10" y="20">Total</text><text fill="#FFFFFF" style="font-size:4px; font-family:Arial" x="10" y="280">ATHLETE</text><text fill="#FFFFFF" style="font-size:9px; font-family:Arial" x="10" y="290">Lam</text><text fill="#FFFFFF" style="font-size:4px; font-family:Arial" x="65" y="280">SPECIAL TRACKS</text><rect fill="yellow" height="2.6" width="2.6" x="65" y="283" /><text fill="#FFFFFF" style="font-size:3px; font-family:Arial" x="70" y="285.5">Over 10.0 km</text><rect fill="red" height="2.6" width="2.6" x="65" y="287" /><text fill="#FFFFFF" style="font-size:3px; font-family:Arial" x="70" y="289.5">Over 20.0 km</text><text fill="#FFFFFF" style="font-size:4px; font-family:Arial" x="120" y="280">STATISTICS</text><text fill="#FFFFFF" style="font-size:3px; font-family:Arial" x="120" y="285">Number: 20</text><text fill="#FFFFFF" style="font-size:3px; font-family:Arial" x="120" y="290">Weekly: 2.5</text><text fill="#FFFFFF" style="font-size:3px; font-family:Arial" x="141" y="285">Total: 30.1 km</text><text fill="#FFFFFF" style="font-size:3px; font-family:Arial" x="141" y="290">Avg: 1.5 km</text><text fill="#FFFFFF" style="font-size:3px; font-family:Arial" x="167" y="285">Min: 1.3 km</text><text fill="#FFFFFF" style="font-size:3px; font-family:Arial" x="167" y="290">Max: 1.8 km</text><polyline fill="none" points="12.906756756361574,45.71233232121449 14.220270270016044,44.83243943168782 12.25,45.46093441429548 13.235135134775192,42.69555417227093 14.658108108211309,47.849212527042255 13.782432432286441,45.838031255989335 15.533783783670515,43.70114768121857 14.001351351384073,43.19835102604702 16.518918918911368,43.324050208204426 17.941891891416162,40.93576362414751 16.081081080716103,41.815659201703966 18.708108108025044,44.7067403976107 16.628378377761692,44.078245042823255 17.941891891416162,43.324050208204426 16.73783783754334,40.432965878397226 16.95675675664097,43.575448535964824 18.708108108025044,43.324050208204426 18.05135135119781,44.7067403976107 21.335135135333985,49.48329497501254 19.145945945754647,49.231897811521776 13.125675675924867,41.689959870418534 21.006756756454706,44.455342292785645 15.752702702302486,44.20394413836766 20.897297297604382,51.24307373189367 18.379729729611427,52.62575533799827 18.81756756780669,54.25983166776132 23.524324323982,55.139718055026606 36.98783783754334,64.56703412171919 44.2121621617116,52.751453591743484 52.75,56.89948900928721" stroke="#4DD2FF" stroke-linecap="round" stroke-linejoin="round" stroke-width="0.5"><title>2025-01-29 1.5km</title><desc>1738136859000</desc></polyline><polyline fill="none" points="89.24129296583124,32.25 78.44320636009797,50.856357502460014 80.45971650956199,52.276100950082764 77.59757307171822,58.70227484690258 65.75870703416876,72.75" stroke="#4DD2FF" stroke-linecap="round" stroke-linejoin="round" stroke-width="0.5"><title>2025-01-21 1.3km</title><desc>1737419096000</desc></polyline><polyline fill="none" points="130.4375580290798,32.25 124.10259485151619,42.86266068686382 125.19613016187213,44.075519858684856 123.46155691100284,47.80070922189043 116.63638824946247,56.073981850378914 114.56244197092019,59.84238419809844 120.44490777887404,64.217155551014 119.99241040903144,65.25669877015753 121.08594571938738,66.77269488648744 119.91699418076314,72.75" stroke="#4DD2FF" stroke-linecap="round" stroke-linejoin="round" stroke-width="0.5"><title>2025-01-20 1.8km</title><desc>1737332628000</desc></polyline><polyline fill="none" points="166.38627737178467,32.25 175.74154744832776,42.119337556592654 171.66850469401106,51.69612463010708 172.55948279658332,52.64648606226547 171.85942857316695,54.40099627309246 159.25845255167224,69.24106231023325 161.10405004955828,72.75" stroke="#4DD2FF" stroke-linecap="round" stroke-linejoin="round" stroke-width="0.5"><title>2025-01-18 1.5km</title><desc>1737163887000</desc></polyline><polyline fill="none" points="36.43592778407037,81.0 37.84029638324864,82.14627883353387 31.816294234711677,92.54755829786882 32.88804921833798,93.01454862076207 37.322897425852716,98.27876811070018 34.99460211675614,103.500470593106 35.36417280090973,104.77404695239966 27.677102574380115,114.07104018729297 29.0075570368208,116.53322393336566 29.45104185747914,115.55684240927803 29.414084789110348,117.38224954501493 28.89668583148159,116.78793179275817 27.159703616751358,121.5" stroke="#4DD2FF" stroke-linecap="round" stroke-linejoin="round" stroke-width="0.5"><title>2025-01-03 1.8km</title><desc>1735863068000</desc></polyline><polyline fill="none" points="82.85082977591082,81.0 72.149170224322,99.70417727984022 81.93166883289814,109.96111244428903 77.72979023610242,119.53915557550499 78.51764247287065,121.5" stroke="#4DD2FF" stroke-linecap="round" stroke-linejoin="round" stroke-width="0.5"><title>2024-12-09 1.4km</title><desc>1733703753000</desc></polyline><polyline fill="none" points="127.67729496955872,81.0 117.32270503067411,98.95162499835715 123.86578947049566,105.08134837384569 126.72441859473474,109.24077458976535 122.91291309567168,117.77847090776777 123.54816401237622,119.23789631290128 122.53176254592836,121.5" stroke="#4DD2FF" stroke-linecap="round" stroke-linejoin="round" stroke-width="0.5"><title>2024-12-07 1.5km</title><desc>1733536100000</desc></polyline><polyline fill="none" points="171.38949989853427,81.0 162.66949206218123,96.13371475285385 172.33050793781877,106.58300145628164 168.37827417068183,113.06869042885955 166.24532261374407,121.5" stroke="#4DD2FF" stroke-linecap="round" stroke-linejoin="round" stroke-width="0.5"><title>2024-12-06 1.5km</title><desc>1733444217000</desc></polyline><polyline fill="none" points="36.10221860115416,129.75 37.67818923923187,132.07767095032614 31.644473081920296,144.12966856965795 38.35360522684641,151.2676309341332 35.38177488092333,157.88826277363114 36.192274066153914,158.56066601804923 35.51685807830654,159.75030041468563 26.646394772920758,170.25" stroke="#4DD2FF" stroke-linecap="round" stroke-linejoin="round" stroke-width="0.5"><title>2024-12-05 1.6km</title><desc>1733358481000</desc></polyline><polyline fill="none" points="81.60692666843534,129.75 82.55467897630297,131.05648641765583 72.44532102369703,148.984148983669 75.73086235835217,151.16156812215922 81.92284410470165,158.4195853707497 77.94228441058658,167.4920062335441 78.89003671891987,168.94358318892773 78.1318348722998,170.25" stroke="#4DD2FF" stroke-linecap="round" stroke-linejoin="round" stroke-width="0.5"><title>2024-12-04 1.5km</title><desc>1733270790000</desc></polyline><polyline fill="none" points="123.41780370194465,129.75 126.70923766633496,132.07681071397383 118.29076233366504,146.69192250131164 119.99977612309158,149.2368128336966 118.73383998288773,151.78169437783072 125.69648875435814,159.4162862818921 121.83538352628238,168.723110391933 122.72153882472776,170.25" stroke="#4DD2FF" stroke-linecap="round" stroke-linejoin="round" stroke-width="0.5"><title>2024-12-03 1.6km</title><desc>1733185498000</desc></polyline><polyline fill="none" points="163.30561440298334,129.75 170.6384563560132,132.3781926688971 172.28101295325905,133.79336914722808 167.29468042543158,141.27353896095883 162.71898704674095,150.43832002423005 164.53753185132518,151.44913393515162 171.4597346545197,159.53559136693366 167.70531957503408,168.22842632961692 168.64392334478907,169.1718281203066 168.05729598877952,170.25" stroke="#4DD2FF" stroke-linecap="round" stroke-linejoin="round" stroke-width="0.5"><title>2024-12-02 1.5km</title><desc>1733098874000</desc></polyline><polyline fill="none" points="36.625063431216404,178.5 27.794849523575976,194.1967859182041 37.20515047642402,204.78452683676733 31.53318825829774,216.33461929269833 32.56445411592722,217.51923410908785 31.79100472247228,219.0" stroke="#4DD2FF" stroke-linecap="round" stroke-linejoin="round" stroke-width="0.5"><title>2024-11-28 1.5km</title><desc>1732753457000</desc></polyline><polyline fill="none" points="82.70176569768228,178.5 72.29823430231772,196.86912431486417 81.80269508319907,206.4592508682981 77.69265798875131,216.270560743229 78.72016726247966,217.30332271481166 77.82109664776362,219.0" stroke="#4DD2FF" stroke-linecap="round" stroke-linejoin="round" stroke-width="0.5"><title>2024-11-27 1.5km</title><desc>1732667293000</desc></polyline><polyline fill="none" points="117.9536393347662,178.5 125.05182824423537,181.12819266878068 127.2810115381144,182.81292623921763 125.16915368079208,184.96937914495356 117.7189884618856,198.9861570628127 126.4010707642883,208.21820461761672 122.64665679563768,217.1131980937207 123.58526028785855,217.98921391263139 123.1159585416317,219.0" stroke="#4DD2FF" stroke-linecap="round" stroke-linejoin="round" stroke-width="0.5"><title>2024-11-26 1.5km</title><desc>1732580565000</desc></polyline><polyline fill="none" points="168.27725653233938,178.5 171.44846318289638,180.7143442676752 168.89906175760552,183.71441279305145 162.92973159183748,195.28598921274533 172.07026840839535,206.143102604663 168.40161757729948,212.2858709549182 166.66056294552982,217.00005317863543 167.65545130660757,218.07145394844702 167.1580071260687,219.0" stroke="#4DD2FF" stroke-linecap="round" stroke-linejoin="round" stroke-width="0.5"><title>2024-11-25 1.4km</title><desc>1732494030000</desc></polyline><polyline fill="none" points="36.04515703837387,227.25 29.34513547946699,243.5399282683502 27.653867901302874,245.40801691293018 37.346132098464295,255.12200358585687 33.18301190645434,265.0600302463281 34.158743201289326,265.9566878924961 33.44320691842586,267.75" stroke="#4DD2FF" stroke-linecap="round" stroke-linejoin="round" stroke-width="0.5"><title>2024-11-22 1.4km</title><desc>1732235057000</desc></polyline><polyline fill="none" points="79.21088003693148,227.25 81.28837722470053,230.689431011735 78.29433715995401,238.19996745616663 72.97838847362436,247.0440488946042 82.02161152637564,256.1687795838807 78.11102858488448,265.363582123362 78.90536574460566,266.3462257478386 78.47764573572204,267.75" stroke="#4DD2FF" stroke-linecap="round" stroke-linejoin="round" stroke-width="0.5"><title>2024-11-21 1.5km</title><desc>1732147849000</desc></polyline><polyline fill="none" points="125.60734554822557,227.25 127.34028825792484,228.82885772304144 117.65971174207516,245.57825814792886 126.50369522557594,254.8451711787493 122.73902658070438,263.8373910130467 123.69513290328905,264.93566944100894 122.02194683859125,267.75" stroke="#4DD2FF" stroke-linecap="round" stroke-linejoin="round" stroke-width="0.5"><title>2024-11-19 1.5km</title><desc>1731974934000</desc></polyline><polyline fill="none" points="176.2344846224878,227.25 178.57076014461927,229.3238596356241 171.34954489418305,241.52289312670473 172.94246002309956,243.2917329989723 169.1194637143053,250.30604818026768 158.81861254852265,262.9926074066316 156.42923985561356,267.75" stroke="#4DD2FF" stroke-linecap="round" stroke-linejoin="round" stroke-width="0.5"><title>2024-11-18 1.4km</title><desc>1731889365000</desc></polyline></svg>