<?xml version="1.0" encoding="utf-8" ?>
<svg baseProfile="full" height="300mm" version="1.1" viewBox="0,0,200,300" width="200mm" xmlns="http://www.w3.org/2000/svg" xmlns:ev="http://www.w3.org/2001/xml-events" xmlns:xlink="http://www.w3.org/1999/xlink"><defs /><rect fill="#222222" height="300" width="200" x="0" y="0" /><text fill="#FFFFFF" style="font-size:12px; font-family:Arial; font-weight:bold;" x="10" y="20">Total</text><text fill="#FFFFFF" style="font-size:4px; font-family:Arial" x="10" y="280">ATHLETE</text><text fill="#FFFFFF" style="font-size:9px; font-family:Arial" x="10" y="290">Lam</text><text fill="#FFFFFF" style="font-size:4px; font-family:Arial" x="65" y="280">SPECIAL TRACKS</text><rect fill="yellow" height="2.6" width="2.6" x="65" y="283" /><text fill="#FFFFFF" style="font-size:3px; font-family:Arial" x="70" y="285.5">Over 10.0 km</text><rect fill="red" height="2.6" width="2.6" x="65" y="287" /><text fill="#FFFFFF" style="font-size:3px; font-family:Arial" x="70" y="289.5">Over 20.0 km</text><text fill="#FFFFFF" style="font-size:4px; font-family:Arial" x="120" y="280">STATISTICS</text><text fill="#FFFFFF" style="font-size:3px; font-family:Arial" x="120" y="285">Number: 13</text><text fill="#FFFFFF" style="font-size:3px; font-family:Arial" x="120" y="290">Weekly: 4.3</text><text fill="#FFFFFF" style="font-size:3px; font-family:Arial" x="141" y="285">Total: 19.3 km</text><text fill="#FFFFFF" style="font-size:3px; font-family:Arial" x="141" y="290">Avg: 1.5 km</text><text fill="#FFFFFF" style="font-size:3px; font-family:Arial" x="167" y="285">Min: 1.4 km</text><text fill="#FFFFFF" style="font-size:3px; font-family:Arial" x="167" y="290">Max: 1.6 km</text><polyline fill="none" points="38.14879989158362,32.399999999965075 28.847458199597895,48.54262906970689 39.152541800402105,59.68853488669265 34.93682578206062,66.60660312412074 32.66167745459825,75.59999999997672" stroke="#4DD2FF" stroke-linecap="round" stroke-linejoin="round" stroke-width="0.5"><title>2024-12-06 1.5km</title><desc>1733444217000</desc></polyline><polyline fill="none" points="103.84236650797538,32.399999999965075 105.52340185525827,34.88284901366569 99.08743795426562,47.73831314092968 106.24384557525627,55.35213966300944 103.07389320642687,62.41414695850108 103.93842567061074,63.131377085868735 103.21798195014708,64.400320442277 93.7561544245109,75.59999999997672" stroke="#4DD2FF" stroke-linecap="round" stroke-linejoin="round" stroke-width="0.5"><title>2024-12-05 1.6km</title><desc>1733358481000</desc></polyline><polyline fill="none" points="170.380721779773,32.399999999965075 171.39165757480077,33.79358551214682 160.60834242519923,52.916425582545344 164.11291984887794,55.23900599696208 170.71770037827082,62.98089106212137 166.47177003789693,72.65813998237718 167.48270583339036,74.20648873480968 166.67395719699562,75.59999999997672" stroke="#4DD2FF" stroke-linecap="round" stroke-linejoin="round" stroke-width="0.5"><title>2024-12-04 1.5km</title><desc>1733270790000</desc></polyline><polyline fill="none" points="34.97899061511271,80.39999999996508 38.48985351063311,82.88193142815726 29.51014648913406,98.47138400137192 31.33309453120455,101.18593368923757 29.98276264825836,103.90047400299227 37.40958800446242,112.04403870063834 33.291075761197135,121.97131775133312 34.236308079678565,123.59999999997672" stroke="#4DD2FF" stroke-linecap="round" stroke-linejoin="round" stroke-width="0.5"><title>2024-12-03 1.6km</title><desc>1733185498000</desc></polyline><polyline fill="none" points="95.52598869637586,80.39999999996508 103.34768677945249,83.20340551348636 105.09974714997225,84.71292709029512 99.7809924534522,92.69177489163121 94.90025284979492,102.46754135919036 96.84003397449851,103.54574286408024 104.22371696471237,112.17129745800048 100.2190075465478,121.44365475152154 101.2201849007979,122.4499499949743 100.5944490544498,123.59999999997672" stroke="#4DD2FF" stroke-linecap="round" stroke-linejoin="round" stroke-width="0.5"><title>2024-12-02 1.5km</title><desc>1733098874000</desc></polyline><polyline fill="none" points="170.40006766002625,80.39999999996508 160.9811728252098,97.14323831273941 171.01882717502303,108.4368286258541 164.96873414237052,120.75692724552937 166.06875105714425,122.0205163830542 165.2437383707147,123.59999999997672" stroke="#4DD2FF" stroke-linecap="round" stroke-linejoin="round" stroke-width="0.5"><title>2024-11-28 1.5km</title><desc>1732753457000</desc></polyline><polyline fill="none" points="39.548550077481195,128.39999999996508 28.451449922518805,147.99373260245193 38.58954142197035,158.22320092614973 34.20550185465254,168.6885981260566 35.30151174659841,169.79021089570597 34.342503090854734,171.59999999997672" stroke="#4DD2FF" stroke-linecap="round" stroke-linejoin="round" stroke-width="0.5"><title>2024-11-27 1.5km</title><desc>1732667293000</desc></polyline><polyline fill="none" points="95.15054862364195,128.39999999996508 102.72195012704469,131.20340551331174 105.09974564053118,133.00045465509174 102.8470972594805,135.30067108792718 94.90025435923599,150.25190086697694 104.16114214854315,160.09941825876012 100.15643391525373,169.58741129992995 101.15761097357608,170.5218281734269 100.65702244429849,171.59999999997672" stroke="#4DD2FF" stroke-linecap="round" stroke-linejoin="round" stroke-width="0.5"><title>2024-11-26 1.5km</title><desc>1732580565000</desc></polyline><polyline fill="none" points="166.82907363399863,128.39999999996508 170.21169406129047,130.76196721883025 167.49233254115097,133.96204031253 161.12504703109153,146.30505516025005 170.87495296867564,157.88597611163277 166.9617254154291,164.4382623518468 165.1046004749369,169.46672339050565 166.16581472661346,170.60955087834736 165.63520760065876,171.59999999997672" stroke="#4DD2FF" stroke-linecap="round" stroke-linejoin="round" stroke-width="0.5"><title>2024-11-25 1.4km</title><desc>1732494030000</desc></polyline><polyline fill="none" points="37.781500841258094,176.39999999996508 30.6348111780826,193.77592348621693 28.83079242822714,195.76855137373786 39.16920757200569,206.13013715820853 34.728546033846214,216.7306989293429 35.76932608173229,217.687133751926 35.0060873797629,219.59999999997672" stroke="#4DD2FF" stroke-linecap="round" stroke-linejoin="round" stroke-width="0.5"><title>2024-11-22 1.4km</title><desc>1732235057000</desc></polyline><polyline fill="none" points="101.82493870612234,176.39999999996508 104.04093570634723,180.06872641242808 100.84729297063313,188.07996528653894 95.17694770521484,197.51365215418627 104.82305229478516,207.24669822276337 100.65176382381469,217.05448759824503 101.49905679444782,218.1026407976169 101.04282211815007,219.59999999997672" stroke="#4DD2FF" stroke-linecap="round" stroke-linejoin="round" stroke-width="0.5"><title>2024-11-21 1.5km</title><desc>1732147849000</desc></polyline><polyline fill="none" points="169.314501917921,176.40000000002328 171.16297414153814,178.08411490457365 160.83702585822903,195.95014202443417 170.27060824050568,205.83484925731318 166.254961685976,215.42655041388934 167.27480842988007,216.5980474037351 165.49007662781514,219.59999999997672" stroke="#4DD2FF" stroke-linecap="round" stroke-linejoin="round" stroke-width="0.5"><title>2024-11-19 1.5km</title><desc>1731974934000</desc></polyline><polyline fill="none" points="43.316783596994355,224.39999999996508 45.808810820803046,226.6121169445687 38.106181220384315,239.62441933510127 39.805290691321716,241.51118186552776 35.727427961770445,248.9931180588901 24.739853385137394,262.5254479003488 22.191189179196954,267.5999999999767" stroke="#4DD2FF" stroke-linecap="round" stroke-linejoin="round" stroke-width="0.5"><title>2024-11-18 1.4km</title><desc>1731889365000</desc></polyline></svg>