<?xml version="1.0" encoding="utf-8" ?>
<svg baseProfile="full" height="300mm" version="1.1" viewBox="0,0,200,300" width="200mm" xmlns="http://www.w3.org/2000/svg" xmlns:ev="http://www.w3.org/2001/xml-events" xmlns:xlink="http://www.w3.org/1999/xlink"><defs /><rect fill="#222222" height="300" width="200" x="0" y="0" /><text fill="#FFFFFF" style="font-size:12px; font-family:Arial; font-weight:bold;" x="10" y="20">Total</text><text fill="#FFFFFF" style="font-size:4px; font-family:Arial" x="10" y="280">ATHLETE</text><text fill="#FFFFFF" style="font-size:9px; font-family:Arial" x="10" y="290">Lam</text><text fill="#FFFFFF" style="font-size:4px; font-family:Arial" x="65" y="280">SPECIAL TRACKS</text><rect fill="yellow" height="2.6" width="2.6" x="65" y="283" /><text fill="#FFFFFF" style="font-size:3px; font-family:Arial" x="70" y="285.5">Over 10.0 km</text><rect fill="red" height="2.6" width="2.6" x="65" y="287" /><text fill="#FFFFFF" style="font-size:3px; font-family:Arial" x="70" y="289.5">Over 20.0 km</text><text fill="#FFFFFF" style="font-size:4px; font-family:Arial" x="120" y="280">STATISTICS</text><text fill="#FFFFFF" style="font-size:3px; font-family:Arial" x="120" y="285">Number: 16</text><text fill="#FFFFFF" style="font-size:3px; font-family:Arial" x="120" y="290">Weekly: 3.2</text><text fill="#FFFFFF" style="font-size:3px; font-family:Arial" x="141" y="285">Total: 24.0 km</text><text fill="#FFFFFF" style="font-size:3px; font-family:Arial" x="141" y="290">Avg: 1.5 km</text><text fill="#FFFFFF" style="font-size:3px; font-family:Arial" x="167" y="285">Min: 1.4 km</text><text fill="#FFFFFF" style="font-size:3px; font-family:Arial" x="167" y="290">Max: 1.8 km</text><polyline fill="none" points="36.43592778407037,32.25 37.84029638324864,33.39627883353387 31.816294234711677,43.79755829786882 32.88804921833798,44.26454862076207 37.322897425852716,49.528768110700184 34.99460211675614,54.750470593106 35.36417280090973,56.02404695239966 27.677102574380115,65.32104018729297 29.0075570368208,67.78322393336566 29.45104185747914,66.80684240927803 29.414084789110348,68.63224954501493 28.89668583148159,68.03793179275817 27.159703616751358,72.75" stroke="#4DD2FF" stroke-linecap="round" stroke-linejoin="round" stroke-width="0.5"><title>2025-01-03 1.8km</title><desc>1735863068000</desc></polyline><polyline fill="none" points="82.85082977591082,32.25 72.149170224322,50.95417727984022 81.93166883289814,61.21111244428903 77.72979023610242,70.78915557550499 78.51764247287065,72.75" stroke="#4DD2FF" stroke-linecap="round" stroke-linejoin="round" stroke-width="0.5"><title>2024-12-09 1.4km</title><desc>1733703753000</desc></polyline><polyline fill="none" points="127.67729496955872,32.25 117.32270503067411,50.20162499835715 123.86578947049566,56.331348373845685 126.72441859473474,60.49077458976535 122.91291309567168,69.02847090776777 123.54816401237622,70.48789631290128 122.53176254592836,72.75" stroke="#4DD2FF" stroke-linecap="round" stroke-linejoin="round" stroke-width="0.5"><title>2024-12-07 1.5km</title><desc>1733536100000</desc></polyline><polyline fill="none" points="171.38949989853427,32.25 162.66949206218123,47.38371475285385 172.33050793781877,57.833001456281636 168.37827417068183,64.31869042885955 166.24532261374407,72.75" stroke="#4DD2FF" stroke-linecap="round" stroke-linejoin="round" stroke-width="0.5"><title>2024-12-06 1.5km</title><desc>1733444217000</desc></polyline><polyline fill="none" points="36.10221860115416,97.25 37.67818923923187,99.57767095032614 31.644473081920296,111.62966856965795 38.35360522684641,118.7676309341332 35.38177488092333,125.38826277363114 36.192274066153914,126.06066601804923 35.51685807830654,127.25030041468563 26.646394772920758,137.75" stroke="#4DD2FF" stroke-linecap="round" stroke-linejoin="round" stroke-width="0.5"><title>2024-12-05 1.6km</title><desc>1733358481000</desc></polyline><polyline fill="none" points="81.60692666843534,97.25 82.55467897630297,98.55648641765583 72.44532102369703,116.484148983669 75.73086235835217,118.66156812215922 81.92284410470165,125.9195853707497 77.94228441058658,134.9920062335441 78.89003671891987,136.44358318892773 78.1318348722998,137.75" stroke="#4DD2FF" stroke-linecap="round" stroke-linejoin="round" stroke-width="0.5"><title>2024-12-04 1.5km</title><desc>1733270790000</desc></polyline><polyline fill="none" points="123.41780370194465,97.25 126.70923766633496,99.57681071397383 118.29076233366504,114.19192250131164 119.99977612309158,116.7368128336966 118.73383998288773,119.28169437783072 125.69648875435814,126.9162862818921 121.83538352628238,136.223110391933 122.72153882472776,137.75" stroke="#4DD2FF" stroke-linecap="round" stroke-linejoin="round" stroke-width="0.5"><title>2024-12-03 1.6km</title><desc>1733185498000</desc></polyline><polyline fill="none" points="163.30561440298334,97.25 170.6384563560132,99.8781926688971 172.28101295325905,101.29336914722808 167.29468042543158,108.77353896095883 162.71898704674095,117.93832002423005 164.53753185132518,118.94913393515162 171.4597346545197,127.03559136693366 167.70531957503408,135.72842632961692 168.64392334478907,136.6718281203066 168.05729598877952,137.75" stroke="#4DD2FF" stroke-linecap="round" stroke-linejoin="round" stroke-width="0.5"><title>2024-12-02 1.5km</title><desc>1733098874000</desc></polyline><polyline fill="none" points="36.625063431216404,162.25 27.794849523575976,177.9467859182041 37.20515047642402,188.53452683676733 31.53318825829774,200.08461929269833 32.56445411592722,201.26923410908785 31.79100472247228,202.75" stroke="#4DD2FF" stroke-linecap="round" stroke-linejoin="round" stroke-width="0.5"><title>2024-11-28 1.5km</title><desc>1732753457000</desc></polyline><polyline fill="none" points="82.70176569768228,162.25 72.29823430231772,180.61912431486417 81.80269508319907,190.2092508682981 77.69265798875131,200.020560743229 78.72016726247966,201.05332271481166 77.82109664776362,202.75" stroke="#4DD2FF" stroke-linecap="round" stroke-linejoin="round" stroke-width="0.5"><title>2024-11-27 1.5km</title><desc>1732667293000</desc></polyline><polyline fill="none" points="117.9536393347662,162.25 125.05182824423537,164.87819266878068 127.2810115381144,166.56292623921763 125.16915368079208,168.71937914495356 117.7189884618856,182.7361570628127 126.4010707642883,191.96820461761672 122.64665679563768,200.8631980937207 123.58526028785855,201.73921391263139 123.1159585416317,202.75" stroke="#4DD2FF" stroke-linecap="round" stroke-linejoin="round" stroke-width="0.5"><title>2024-11-26 1.5km</title><desc>1732580565000</desc></polyline><polyline fill="none" points="168.27725653233938,162.25 171.44846318289638,164.4643442676752 168.89906175760552,167.46441279305145 162.92973159183748,179.03598921274533 172.07026840839535,189.893102604663 168.40161757729948,196.0358709549182 166.66056294552982,200.75005317863543 167.65545130660757,201.82145394844702 167.1580071260687,202.75" stroke="#4DD2FF" stroke-linecap="round" stroke-linejoin="round" stroke-width="0.5"><title>2024-11-25 1.4km</title><desc>1732494030000</desc></polyline><polyline fill="none" points="36.04515703837387,227.25 29.34513547946699,243.5399282683502 27.653867901302874,245.40801691293018 37.346132098464295,255.12200358585687 33.18301190645434,265.0600302463281 34.158743201289326,265.9566878924961 33.44320691842586,267.75" stroke="#4DD2FF" stroke-linecap="round" stroke-linejoin="round" stroke-width="0.5"><title>2024-11-22 1.4km</title><desc>1732235057000</desc></polyline><polyline fill="none" points="79.21088003693148,227.25 81.28837722470053,230.689431011735 78.29433715995401,238.19996745616663 72.97838847362436,247.0440488946042 82.02161152637564,256.1687795838807 78.11102858488448,265.363582123362 78.90536574460566,266.3462257478386 78.47764573572204,267.75" stroke="#4DD2FF" stroke-linecap="round" stroke-linejoin="round" stroke-width="0.5"><title>2024-11-21 1.5km</title><desc>1732147849000</desc></polyline><polyline fill="none" points="125.60734554822557,227.25 127.34028825792484,228.82885772304144 117.65971174207516,245.57825814792886 126.50369522557594,254.8451711787493 122.73902658070438,263.8373910130467 123.69513290328905,264.93566944100894 122.02194683859125,267.75" stroke="#4DD2FF" stroke-linecap="round" stroke-linejoin="round" stroke-width="0.5"><title>2024-11-19 1.5km</title><desc>1731974934000</desc></polyline><polyline fill="none" points="176.2344846224878,227.25 178.57076014461927,229.3238596356241 171.34954489418305,241.52289312670473 172.94246002309956,243.2917329989723 169.1194637143053,250.30604818026768 158.81861254852265,262.9926074066316 156.42923985561356,267.75" stroke="#4DD2FF" stroke-linecap="round" stroke-linejoin="round" stroke-width="0.5"><title>2024-11-18 1.4km</title><desc>1731889365000</desc></polyline></svg>