<?xml version="1.0" encoding="utf-8" ?>
<svg baseProfile="full" height="300mm" version="1.1" viewBox="0,0,200,300" width="200mm" xmlns="http://www.w3.org/2000/svg" xmlns:ev="http://www.w3.org/2001/xml-events" xmlns:xlink="http://www.w3.org/1999/xlink"><defs /><rect fill="#222222" height="300" width="200" x="0" y="0" /><text fill="#FFFFFF" style="font-size:12px; font-family:Arial; font-weight:bold;" x="10" y="20">Total</text><text fill="#FFFFFF" style="font-size:4px; font-family:Arial" x="10" y="280">ATHLETE</text><text fill="#FFFFFF" style="font-size:9px; font-family:Arial" x="10" y="290">Lam</text><text fill="#FFFFFF" style="font-size:4px; font-family:Arial" x="65" y="280">SPECIAL TRACKS</text><rect fill="yellow" height="2.6" width="2.6" x="65" y="283" /><text fill="#FFFFFF" style="font-size:3px; font-family:Arial" x="70" y="285.5">Over 10.0 km</text><rect fill="red" height="2.6" width="2.6" x="65" y="287" /><text fill="#FFFFFF" style="font-size:3px; font-family:Arial" x="70" y="289.5">Over 20.0 km</text><text fill="#FFFFFF" style="font-size:4px; font-family:Arial" x="120" y="280">STATISTICS</text><text fill="#FFFFFF" style="font-size:3px; font-family:Arial" x="120" y="285">Number: 15</text><text fill="#FFFFFF" style="font-size:3px; font-family:Arial" x="120" y="290">Weekly: 3.8</text><text fill="#FFFFFF" style="font-size:3px; font-family:Arial" x="141" y="285">Total: 22.2 km</text><text fill="#FFFFFF" style="font-size:3px; font-family:Arial" x="141" y="290">Avg: 1.5 km</text><text fill="#FFFFFF" style="font-size:3px; font-family:Arial" x="167" y="285">Min: 1.4 km</text><text fill="#FFFFFF" style="font-size:3px; font-family:Arial" x="167" y="290">Max: 1.6 km</text><polyline fill="none" points="39.70755176083185,32.40000000002328 28.292448239168152,52.35112243180629 38.72711342154071,63.29185327386949 34.24510958488099,73.50843261386035 35.08548530424014,75.59999999997672" stroke="#4DD2FF" stroke-linecap="round" stroke-linejoin="round" stroke-width="0.5"><title>2024-12-09 1.4km</title><desc>1733703753000</desc></polyline><polyline fill="none" points="105.52244796720333,32.399999999965075 94.47755203256384,51.54839999822434 101.45684210164472,58.086771598726045 104.50604650075547,62.52349289570702 100.44044063519686,71.63036896823905 101.11804161313921,73.18708940036595 100.03388004889712,75.59999999997672" stroke="#4DD2FF" stroke-linecap="round" stroke-linejoin="round" stroke-width="0.5"><title>2024-12-07 1.5km</title><desc>1733536100000</desc></polyline><polyline fill="none" points="170.14879989158362,32.399999999965075 160.8474581995979,48.54262906970689 171.1525418004021,59.68853488669265 166.93682578206062,66.60660312412074 164.66167745459825,75.59999999997672" stroke="#4DD2FF" stroke-linecap="round" stroke-linejoin="round" stroke-width="0.5"><title>2024-12-06 1.5km</title><desc>1733444217000</desc></polyline><polyline fill="none" points="37.842366507975385,80.39999999996508 39.52340185525827,82.88284901366569 33.087437954265624,95.73831314092968 40.24384557525627,103.35213966300944 37.073893206426874,110.41414695850108 37.93842567061074,111.13137708586873 37.21798195014708,112.400320442277 27.756154424510896,123.59999999997672" stroke="#4DD2FF" stroke-linecap="round" stroke-linejoin="round" stroke-width="0.5"><title>2024-12-05 1.6km</title><desc>1733358481000</desc></polyline><polyline fill="none" points="104.38072177977301,80.39999999996508 105.39165757480077,81.79358551214682 94.60834242519923,100.91642558254534 98.11291984887794,103.23900599696208 104.71770037827082,110.98089106212137 100.47177003789693,120.65813998237718 101.48270583339036,122.20648873480968 100.67395719699562,123.59999999997672" stroke="#4DD2FF" stroke-linecap="round" stroke-linejoin="round" stroke-width="0.5"><title>2024-12-04 1.5km</title><desc>1733270790000</desc></polyline><polyline fill="none" points="166.9789906151127,80.39999999996508 170.4898535106331,82.88193142815726 161.51014648913406,98.47138400137192 163.33309453120455,101.18593368923757 161.98276264825836,103.90047400299227 169.40958800446242,112.04403870063834 165.29107576119713,121.97131775133312 166.23630807967857,123.59999999997672" stroke="#4DD2FF" stroke-linecap="round" stroke-linejoin="round" stroke-width="0.5"><title>2024-12-03 1.6km</title><desc>1733185498000</desc></polyline><polyline fill="none" points="29.52598869637586,128.39999999996508 37.34768677945249,131.20340551348636 39.099747149972245,132.71292709029512 33.7809924534522,140.6917748916312 28.900252849794924,150.46754135919036 30.84003397449851,151.54574286408024 38.22371696471237,160.17129745800048 34.2190075465478,169.44365475152154 35.2201849007979,170.4499499949743 34.5944490544498,171.59999999997672" stroke="#4DD2FF" stroke-linecap="round" stroke-linejoin="round" stroke-width="0.5"><title>2024-12-02 1.5km</title><desc>1733098874000</desc></polyline><polyline fill="none" points="104.40006766002625,128.39999999996508 94.9811728252098,145.1432383127394 105.01882717502303,156.4368286258541 98.96873414237052,168.75692724552937 100.06875105714425,170.0205163830542 99.24373837071471,171.59999999997672" stroke="#4DD2FF" stroke-linecap="round" stroke-linejoin="round" stroke-width="0.5"><title>2024-11-28 1.5km</title><desc>1732753457000</desc></polyline><polyline fill="none" points="171.5485500774812,128.39999999996508 160.4514499225188,147.99373260245193 170.58954142197035,158.22320092614973 166.20550185465254,168.6885981260566 167.3015117465984,169.79021089570597 166.34250309085473,171.59999999997672" stroke="#4DD2FF" stroke-linecap="round" stroke-linejoin="round" stroke-width="0.5"><title>2024-11-27 1.5km</title><desc>1732667293000</desc></polyline><polyline fill="none" points="29.150548623641953,176.39999999996508 36.72195012704469,179.20340551331174 39.09974564053118,181.00045465509174 36.847097259480506,183.30067108792718 28.900254359235987,198.25190086697694 38.16114214854315,208.09941825876012 34.15643391525373,217.58741129992995 35.157610973576084,218.5218281734269 34.65702244429849,219.59999999997672" stroke="#4DD2FF" stroke-linecap="round" stroke-linejoin="round" stroke-width="0.5"><title>2024-11-26 1.5km</title><desc>1732580565000</desc></polyline><polyline fill="none" points="100.82907363399863,176.39999999996508 104.21169406129047,178.76196721883025 101.49233254115097,181.96204031253 95.12504703109153,194.30505516025005 104.87495296867564,205.88597611163277 100.9617254154291,212.4382623518468 99.10460047493689,217.46672339050565 100.16581472661346,218.60955087834736 99.63520760065876,219.59999999997672" stroke="#4DD2FF" stroke-linecap="round" stroke-linejoin="round" stroke-width="0.5"><title>2024-11-25 1.4km</title><desc>1732494030000</desc></polyline><polyline fill="none" points="169.7815008412581,176.39999999996508 162.6348111780826,193.77592348621693 160.83079242822714,195.76855137373786 171.1692075720057,206.13013715820853 166.72854603384621,216.7306989293429 167.7693260817323,217.687133751926 167.0060873797629,219.59999999997672" stroke="#4DD2FF" stroke-linecap="round" stroke-linejoin="round" stroke-width="0.5"><title>2024-11-22 1.4km</title><desc>1732235057000</desc></polyline><polyline fill="none" points="35.82493870612234,224.39999999996508 38.04093570634723,228.06872641242808 34.847292970633134,236.07996528653894 29.176947705214843,245.51365215418627 38.82305229478516,255.24669822276337 34.65176382381469,265.05448759824503 35.499056794447824,266.1026407976169 35.04282211815007,267.5999999999767" stroke="#4DD2FF" stroke-linecap="round" stroke-linejoin="round" stroke-width="0.5"><title>2024-11-21 1.5km</title><desc>1732147849000</desc></polyline><polyline fill="none" points="103.314501917921,224.40000000002328 105.16297414153814,226.08411490457365 94.83702585822903,243.95014202443417 104.27060824050568,253.83484925731318 100.25496168597601,263.42655041388934 101.27480842988007,264.5980474037351 99.49007662781514,267.5999999999767" stroke="#4DD2FF" stroke-linecap="round" stroke-linejoin="round" stroke-width="0.5"><title>2024-11-19 1.5km</title><desc>1731974934000</desc></polyline><polyline fill="none" points="175.31678359699436,224.39999999996508 177.80881082080305,226.6121169445687 170.10618122038431,239.62441933510127 171.80529069132172,241.51118186552776 167.72742796177045,248.9931180588901 156.7398533851374,262.5254479003488 154.19118917919695,267.5999999999767" stroke="#4DD2FF" stroke-linecap="round" stroke-linejoin="round" stroke-width="0.5"><title>2024-11-18 1.4km</title><desc>1731889365000</desc></polyline></svg>