<?xml version="1.0" encoding="utf-8" ?>
<svg baseProfile="full" height="300mm" version="1.1" viewBox="0,0,200,300" width="200mm" xmlns="http://www.w3.org/2000/svg" xmlns:ev="http://www.w3.org/2001/xml-events" xmlns:xlink="http://www.w3.org/1999/xlink"><defs /><rect fill="#222222" height="300" width="200" x="0" y="0" /><text fill="#FFFFFF" style="font-size:12px; font-family:Arial; font-weight:bold;" x="10" y="20">Total</text><text fill="#FFFFFF" style="font-size:4px; font-family:Arial" x="10" y="280">ATHLETE</text><text fill="#FFFFFF" style="font-size:9px; font-family:Arial" x="10" y="290">Lam</text><text fill="#FFFFFF" style="font-size:4px; font-family:Arial" x="65" y="280">SPECIAL TRACKS</text><rect fill="yellow" height="2.6" width="2.6" x="65" y="283" /><text fill="#FFFFFF" style="font-size:3px; font-family:Arial" x="70" y="285.5">Over 10.0 km</text><rect fill="red" height="2.6" width="2.6" x="65" y="287" /><text fill="#FFFFFF" style="font-size:3px; font-family:Arial" x="70" y="289.5">Over 20.0 km</text><text fill="#FFFFFF" style="font-size:4px; font-family:Arial" x="120" y="280">STATISTICS</text><text fill="#FFFFFF" style="font-size:3px; font-family:Arial" x="120" y="285">Number: 22</text><text fill="#FFFFFF" style="font-size:3px; font-family:Arial" x="120" y="290">Weekly: 2.2</text><text fill="#FFFFFF" style="font-size:3px; font-family:Arial" x="141" y="285">Total: 38.0 km</text><text fill="#FFFFFF" style="font-size:3px; font-family:Arial" x="141" y="290">Avg: 1.7 km</text><text fill="#FFFFFF" style="font-size:3px; font-family:Arial" x="167" y="285">Min: 1.3 km</text><text fill="#FFFFFF" style="font-size:3px; font-family:Arial" x="167" y="290">Max: 5.1 km</text><polyline fill="none" points="12.0,40.562713026447454 14.534693877445534,41.36500602817978 13.469387755030766,44.7852908532368 15.306122448761016,44.363034950365545 15.232653061160818,44.827516420482425 15.563265305943787,44.447486164368456 16.812244897941127,45.41867392414133 17.546938775340095,44.7852908532368 17.951020407956094,46.178732368774945 16.59183673467487,49.81010403414257 18.281632652971894,49.00782690648339 21.477551020449027,49.81010403414257 22.983673469396308,48.5433499852079 23.351020408095792,49.00782690648339 24.306122448993847,47.31881749781314 25.628571428591385,47.361042814474786 25.151020408142358,47.78329575137468 25.518367346841842,47.48771873937221 24.636734693776816,46.43208488274831 23.608163265278563,46.05205605525407 24.453061224427074,45.967605158744846 23.902040816145018,46.85433873863076 24.306122448993847,47.234366851858795 24.967346938559785,45.75647784440662 26.51020408142358,45.249771863775095 26.84081632643938,46.178732368774945 27.355102040572092,45.334222902398324 27.391836734721437,45.967605158744846 28.23673469386995,45.291997385182185 28.310204081470147,48.881151432549814 27.42857142863795,48.67002555934596 28.457142857136205,48.79670109579456 28.34693877538666,44.02522992735612 29.6693877549842,45.249771863775095 31.028571428498253,43.77187598461751 32.865306122461334,45.75647784440662 33.56326530594379,45.249771863775095 33.89387755095959,43.05403899680823 34.92244897945784,42.84291024139384 34.66530612227507,42.37842661139439 40.50612244894728,40.35158303854405 43.15102040814236,40.01377484056866 48.0,41.153876436990686 47.44897959171794,43.265167647914495 46.383673469303176,43.22294192612753 47.22857142845169,44.363034950365545 46.383673469303176,48.20554827063461 40.35918367328122,59.98622515943134" stroke="#4DD2FF" stroke-linecap="round" stroke-linejoin="round" stroke-width="0.5"><title>2025-05-03 2.7km</title><desc>1746255885000</desc></polyline><polyline fill="none" points="86.66797694377601,32.27422902583203 86.52303041808773,32.64639654921484 87.17528978397604,32.019587796661654 86.63174031232484,32.0 84.76555379328784,34.27217504805594 84.33071421599016,35.89794387170696 83.17114200990181,36.622681072956766 82.6638291698182,38.307197950955015 79.65618876030203,38.228848558981554 78.46037992287893,37.83710126236838 77.64505571546033,37.05360498387017 76.7572582452558,37.68040218639362 76.28618203650694,38.71853188992827 75.34402961912565,39.20821434324898 74.80048014747445,39.932942763422034 74.98166330473032,40.28551265108399 74.41999551746994,40.40303584589856 72.95241194404662,39.20821434324898 70.9593972149305,41.637026339245494 69.90853490319569,41.441155204491224 69.27439385291655,40.93188959690451 69.41934037872124,40.03087888893788 69.40122206311207,40.26592544701998 69.63676016731188,40.22675103471556 68.60401617141906,41.42156808328582 69.92665321892127,42.55761879190686 69.83606164029334,43.536969059932744 70.21654627041426,42.94935932033695 70.63326753198635,43.14522937392758 70.08971806033514,43.02770735863305 69.0750923800515,44.516315817818395 68.44095132988878,44.84929291588196 68.45906964561436,45.18226960822358 67.607508806861,46.416238518228056 66.99148607242387,46.710039818353835 66.86465786234476,47.19970794989786 66.15804354927968,47.82648187788436 66.88277617807034,48.453254368316266 68.0242300684331,48.649120476751705 72.28203426243272,53.780762498034164 73.36913320561871,53.60448631684994 74.41999551746994,54.15290072947391 75.14472814614419,53.917866115953075 75.50709446053952,53.389037496526726 76.8659681394929,53.310692428800394 77.26457108545583,53.5457275644585 77.04715129674878,53.80034873339173 77.64505571546033,54.36834894763888 77.84435718844179,55.15179558204545 78.18860518711153,55.19096785481088 78.4966165543301,54.46627989974513 78.2248418184463,53.212761062633945 78.26107844989747,54.40752133267233 78.64156308001839,55.014692583165015 79.61995212885085,55.367243012806284 79.72866202320438,53.50655505590839 80.38092138909269,55.210553989119944 80.81576096639037,54.87758951548312 80.18161991622765,55.328070765259326 79.34817739308346,55.053864875546424 80.09102833759971,55.24972625343071 80.21785654767882,56.48364970656985 80.61645949352533,56.62075196859951 80.32656644191593,57.09081634487666 81.75791338388808,58.85355055599939 82.42829106538557,59.01023749126762 82.62759253836703,58.67727764642041 82.98995885276236,58.99065162925399 84.29447758453898,58.40307511675928 82.5188826440135,63.808731389959576 82.75442074832972,65.35598289193877 83.02619548421353,65.55183688802936 83.5878632714739,68.0 83.55162664002273,67.39285759256745 82.79065737989731,67.29493127155001" stroke="#4DD2FF" stroke-linecap="round" stroke-linejoin="round" stroke-width="0.5"><title>2025-04-04 5.1km</title><desc>1743730371000</desc></polyline><polyline fill="none" points="105.9171171169728,43.966517618857324 107.08468468440697,43.184390605892986 105.33333333348855,43.74305281264242 106.20900900894776,41.28493704192806 107.47387387417257,45.86596669070423 106.69549549557269,44.07825000525918 108.25225225230679,42.17879793874454 106.89009009022266,41.73186757869553 109.12792792823166,41.843600185005926 110.39279279252514,39.72067877696827 108.73873873846605,40.502808179240674 111.07387387380004,43.0726581311319 109.22522522462532,42.513995593530126 110.39279279252514,41.843600185005926 109.32252252241597,39.27374744741246 109.51711711706594,42.06706536526326 111.07387387380004,41.843600185005926 110.49009009031579,43.0726581311319 113.40900900913402,47.31848442228511 111.46306306263432,47.09502027684357 106.11171171208844,40.391075440333225 113.11711711669341,42.84919314912986 108.4468468464911,42.625728122889996 113.01981981983408,48.882732206140645 110.78198198182508,50.111782522522844 111.17117117112502,51.56429481564555 115.35495495470241,52.34641604893841 127.32252252241597,60.72625255258754 133.74414414400235,50.223514303797856 141.33333333348855,53.910656897118315" stroke="#4DD2FF" stroke-linecap="round" stroke-linejoin="round" stroke-width="0.5"><title>2025-01-29 1.5km</title><desc>1738136859000</desc></polyline><polyline fill="none" points="180.43670485843904,32.0 170.8384056536015,48.53898444666993 172.63085911981761,49.800978622282855 170.08673161943443,55.513133197207935 159.56329514156096,68.0" stroke="#4DD2FF" stroke-linecap="round" stroke-linejoin="round" stroke-width="0.5"><title>2025-01-21 1.3km</title><desc>1737419096000</desc></polyline><polyline fill="none" points="37.055607136921026,72.0 31.424528756877407,81.43347616610117 32.39656014391221,82.51157320771017 30.85471725417301,85.82285264166421 24.787900666240603,93.1768727558956 22.944392863078974,96.52656373163336 28.1732513589086,100.41524937865324 27.77103147469461,101.33928779567941 28.743062861612998,102.68683989910642 27.7039948272286,108.0" stroke="#4DD2FF" stroke-linecap="round" stroke-linejoin="round" stroke-width="0.5"><title>2025-01-20 1.8km</title><desc>1737332628000</desc></polyline><polyline fill="none" points="75.67669099685736,72.0 83.9924866205547,80.77274449472316 80.37200417229906,89.2854441155796 81.1639847077895,90.13020983309252 80.54171428689733,91.68977446493227 69.34084671246819,104.88094427576289 70.9813778216485,108.0" stroke="#4DD2FF" stroke-linecap="round" stroke-linejoin="round" stroke-width="0.5"><title>2025-01-18 1.5km</title><desc>1737163887000</desc></polyline><polyline fill="none" points="126.83193580806255,72.0 128.0802634517895,73.01891451870324 122.72559487528633,82.26449626477552 123.6782659717137,82.67959877403337 127.62035326729529,87.35890498731169 125.5507574371295,92.00041830498958 125.8792647117516,93.13248617993668 119.04631339944899,101.3964801664988 120.22893958818167,103.58508794079535 120.62314831779804,102.71719325269805 120.5902975902427,104.33977737335954 120.13038740574848,103.81149492692202 118.58640321483836,108.0" stroke="#4DD2FF" stroke-linecap="round" stroke-linejoin="round" stroke-width="0.5"><title>2025-01-03 1.8km</title><desc>1735863068000</desc></polyline><polyline fill="none" points="174.75629313383251,72.0 165.24370686593466,88.62593535979977 173.93926118453965,97.74321106157731 170.20425798743963,106.25702717818785 170.90457108663395,108.0" stroke="#4DD2FF" stroke-linecap="round" stroke-linejoin="round" stroke-width="0.5"><title>2024-12-09 1.4km</title><desc>1733703753000</desc></polyline><polyline fill="none" points="34.60203997278586,112.0 25.39796002721414,127.95699999853969 31.214035084936768,133.40564299898688 33.75503875082359,137.10291074647103 30.367033862741664,144.69197414023802 30.931701344437897,145.98924116702983 30.02823337423615,148.0" stroke="#4DD2FF" stroke-linecap="round" stroke-linejoin="round" stroke-width="0.5"><title>2024-12-07 1.5km</title><desc>1733536100000</desc></polyline><polyline fill="none" points="80.12399990973063,112.0 72.37288183299825,125.45219089143211 80.96045150049031,134.74044573889114 77.44735481846146,140.50550260342425 75.55139787890948,148.0" stroke="#4DD2FF" stroke-linecap="round" stroke-linejoin="round" stroke-width="0.5"><title>2024-12-06 1.5km</title><desc>1733444217000</desc></polyline><polyline fill="none" points="126.5353054231964,112.0 127.93616821267642,114.06904084476992 122.57286496181041,124.7819276174705 128.53653797949664,131.12678305254667 125.8949110051617,137.01178913214244 126.61535472539254,137.60948090493912 126.01498495857231,138.6669337019266 118.1301286870148,148.0" stroke="#4DD2FF" stroke-linecap="round" stroke-linejoin="round" stroke-width="0.5"><title>2024-12-05 1.6km</title><desc>1733358481000</desc></polyline><polyline fill="none" points="173.65060148318298,112.0 174.49304797919467,113.16132126009325 165.50695202103816,129.0970213187975 168.42743320739828,131.032504997449 173.93141698185354,137.48407588509144 170.39314169832505,145.54844998533372 171.23558819456957,146.8387406123802 170.56163099757396,148.0" stroke="#4DD2FF" stroke-linecap="round" stroke-linejoin="round" stroke-width="0.5"><title>2024-12-04 1.5km</title><desc>1733270790000</desc></polyline><polyline fill="none" points="30.81582551286556,152.0 33.74154459242709,154.06827619019896 26.25845540780574,167.05948666785844 27.777578776236624,169.32161140767857 26.652302206959575,171.583728335856 32.84132333728485,178.37003225059016 29.409229801269248,186.6427647927776 30.196923399809748,188.0" stroke="#4DD2FF" stroke-linecap="round" stroke-linejoin="round" stroke-width="0.5"><title>2024-12-03 1.6km</title><desc>1733185498000</desc></polyline><polyline fill="none" points="72.93832391360775,152.0 79.45640564966016,154.33617126120953 80.91645595850423,155.59410590858897 76.48416037787683,162.2431457430357 72.4168773747515,170.3896177993156 74.03336164541543,171.2881190534099 80.18643080396578,178.4760812150198 76.84917295537889,186.20304562628735 77.6834874174092,187.04162499582162 77.16204087878577,188.0" stroke="#4DD2FF" stroke-linecap="round" stroke-linejoin="round" stroke-width="0.5"><title>2024-12-02 1.5km</title><desc>1733098874000</desc></polyline><polyline fill="none" points="127.00005638343282,152.0 119.15097735426389,165.952698593901 127.51568931248039,175.36402385483962 122.47394511871971,185.6307727046078 123.39062588103116,186.68376365251606 122.70311530912295,188.0" stroke="#4DD2FF" stroke-linecap="round" stroke-linejoin="round" stroke-width="0.5"><title>2024-11-28 1.5km</title><desc>1732753457000</desc></polyline><polyline fill="none" points="174.62379173119552,152.0 165.37620826857165,168.32811050210148 173.82461785152555,176.85266743850661 170.17125154542737,185.57383177173324 171.0845931218937,186.4918424130883 170.28541924222372,188.0" stroke="#4DD2FF" stroke-linecap="round" stroke-linejoin="round" stroke-width="0.5"><title>2024-11-27 1.5km</title><desc>1732667293000</desc></polyline><polyline fill="none" points="25.958790519973263,192.0 32.26829177280888,194.3361712610931 34.249788034008816,195.83371221256675 32.37258104979992,197.75055923993932 25.750211966224015,210.20991738914745 33.46761845727451,218.4161818823195 30.130361596355215,226.32284274994163 30.96467581158504,227.10152347787516 30.54751870385371,228.0" stroke="#4DD2FF" stroke-linecap="round" stroke-linejoin="round" stroke-width="0.5"><title>2024-11-26 1.5km</title><desc>1732580565000</desc></polyline><polyline fill="none" points="77.35756136197597,192.0 80.17641171789728,193.96830601571128 77.91027711774223,196.63503359386232 72.60420585935935,206.92087930021808 80.7291274741292,216.57164675975218 77.46810451289639,222.03188529325416 75.92050039605238,226.22226949216565 76.80484560574405,227.17462573200464 76.36267300066538,228.0" stroke="#4DD2FF" stroke-linecap="round" stroke-linejoin="round" stroke-width="0.5"><title>2024-11-25 1.4km</title><desc>1732494030000</desc></polyline><polyline fill="none" points="126.48458403418772,192.0 120.52900931495242,206.4799362385529 119.02566035673954,208.1404594781925 127.64100630977191,216.7751142985653 123.94045502785593,225.60891577450093 124.80777173442766,226.40594479331048 124.17173948301934,228.0" stroke="#4DD2FF" stroke-linecap="round" stroke-linejoin="round" stroke-width="0.5"><title>2024-11-22 1.4km</title><desc>1732235057000</desc></polyline><polyline fill="none" points="171.52078225486912,192.0 173.3674464218784,195.05727201036643 170.70607747556642,201.73330440546852 165.9807897543069,209.59471012849826 174.01921024546027,217.7055818522931 170.54313651984558,225.8787396652042 171.24921399517916,226.75220066471957 170.86901843175292,228.0" stroke="#4DD2FF" stroke-linecap="round" stroke-linejoin="round" stroke-width="0.5"><title>2024-11-21 1.5km</title><desc>1732147849000</desc></polyline><polyline fill="none" points="32.76208493160084,232.0 34.302478451281786,233.403429087135 25.697521548485383,248.291785020323 33.558840200537816,256.5290410477319 30.212468071607873,264.5221253448399 31.062340358272195,265.4983728363877 29.575063856318593,268.0" stroke="#4DD2FF" stroke-linecap="round" stroke-linejoin="round" stroke-width="0.5"><title>2024-11-19 1.5km</title><desc>1731974934000</desc></polyline><polyline fill="none" points="84.43065299745649,232.0 86.5073423506692,233.84343078715028 80.08848435012624,244.6870161126135 81.50440890924074,246.25931822124403 78.10618996806443,252.4942650491139 68.94987782067619,263.7712065835949 66.82599098258652,268.0" stroke="#4DD2FF" stroke-linecap="round" stroke-linejoin="round" stroke-width="0.5"><title>2024-11-18 1.4km</title><desc>1731889365000</desc></polyline></svg>