<?xml version="1.0" encoding="utf-8" ?>
<svg baseProfile="full" height="300mm" version="1.1" viewBox="0,0,200,300" width="200mm" xmlns="http://www.w3.org/2000/svg" xmlns:ev="http://www.w3.org/2001/xml-events" xmlns:xlink="http://www.w3.org/1999/xlink"><defs /><rect fill="#222222" height="300" width="200" x="0" y="0" /><text fill="#FFFFFF" style="font-size:12px; font-family:Arial; font-weight:bold;" x="10" y="20">Total</text><text fill="#FFFFFF" style="font-size:4px; font-family:Arial" x="10" y="280">ATHLETE</text><text fill="#FFFFFF" style="font-size:9px; font-family:Arial" x="10" y="290">Lam</text><text fill="#FFFFFF" style="font-size:4px; font-family:Arial" x="65" y="280">SPECIAL TRACKS</text><rect fill="yellow" height="2.6" width="2.6" x="65" y="283" /><text fill="#FFFFFF" style="font-size:3px; font-family:Arial" x="70" y="285.5">Over 10.0 km</text><rect fill="red" height="2.6" width="2.6" x="65" y="287" /><text fill="#FFFFFF" style="font-size:3px; font-family:Arial" x="70" y="289.5">Over 20.0 km</text><text fill="#FFFFFF" style="font-size:4px; font-family:Arial" x="120" y="280">STATISTICS</text><text fill="#FFFFFF" style="font-size:3px; font-family:Arial" x="120" y="285">Number: 10</text><text fill="#FFFFFF" style="font-size:3px; font-family:Arial" x="120" y="290">Weekly: 3.3</text><text fill="#FFFFFF" style="font-size:3px; font-family:Arial" x="141" y="285">Total: 14.7 km</text><text fill="#FFFFFF" style="font-size:3px; font-family:Arial" x="141" y="290">Avg: 1.5 km</text><text fill="#FFFFFF" style="font-size:3px; font-family:Arial" x="167" y="285">Min: 1.4 km</text><text fill="#FFFFFF" style="font-size:3px; font-family:Arial" x="167" y="290">Max: 1.6 km</text><polyline fill="none" points="41.22373826894909,33.0 45.61231688829139,36.10241428524023 34.38768311170861,55.58923000172945 36.666368164122105,58.98241711151786 34.97845331020653,62.37559250375489 44.26198500581086,72.55504837585613 39.113844701554626,84.9641471891664 40.29538509948179,87.0" stroke="#4DD2FF" stroke-linecap="round" stroke-linejoin="round" stroke-width="0.5"><title>2024-12-03 1.6km</title><desc>1733185498000</desc></polyline><polyline fill="none" points="94.40748587111011,33.0 104.18460847483948,36.5042568918434 106.37468393798918,38.39115886291256 99.72624056739733,48.36471861455357 93.62531606247649,60.5844266989734 96.0500424685888,61.932178580143955 105.2796462061815,72.7141218225006 100.273759433534,84.30456843943102 101.52523112669587,85.56243749370333 100.74306131852791,87.0" stroke="#4DD2FF" stroke-linecap="round" stroke-linejoin="round" stroke-width="0.5"><title>2024-12-02 1.5km</title><desc>1733098874000</desc></polyline><polyline fill="none" points="165.50008457479998,33.0 153.72646603127941,53.92904789093882 166.27353396825492,68.04603578231763 158.71091767773032,83.44615905691171 160.08593882108107,85.0256454788032 159.05467296298593,87.0" stroke="#4DD2FF" stroke-linecap="round" stroke-linejoin="round" stroke-width="0.5"><title>2024-11-28 1.5km</title><desc>1732753457000</desc></polyline><polyline fill="none" points="46.9356875969097,93.0 33.0643124030903,117.49216575315222 45.73692677775398,130.27900115773082 40.2568773184903,143.36074765765807 41.62688968330622,144.73776361969067 40.42812886368483,147.0" stroke="#4DD2FF" stroke-linecap="round" stroke-linejoin="round" stroke-width="0.5"><title>2024-11-27 1.5km</title><desc>1732667293000</desc></polyline><polyline fill="none" points="93.93818578030914,93.0 103.40243765944615,96.50425689166877 106.37468205112964,98.75056831893744 103.55887157469988,101.62583885999629 93.62531794933602,120.31487608375028 105.20142768602818,132.62427282350836 100.19554239464924,144.48426412494155 101.44701371761039,145.65228521684185 100.82127805612981,147.0" stroke="#4DD2FF" stroke-linecap="round" stroke-linejoin="round" stroke-width="0.5"><title>2024-11-26 1.5km</title><desc>1732580565000</desc></polyline><polyline fill="none" points="161.0363420424983,93.0 165.2646175767295,95.95245902356692 161.86541567649692,99.95255039067706 153.9063087888062,115.38131895032711 166.09369121072814,129.85747013957007 161.20215676911175,138.04782793985214 158.88075059372932,144.33340423816117 160.20726840849966,145.76193859794876 159.5440095011145,147.0" stroke="#4DD2FF" stroke-linecap="round" stroke-linejoin="round" stroke-width="0.5"><title>2024-11-25 1.4km</title><desc>1732494030000</desc></polyline><polyline fill="none" points="44.72687605116516,153.0 35.79351397231221,174.71990435780026 33.53849053522572,177.21068921725964 46.46150946477428,190.16267144784797 40.9106825417839,203.4133736617514 42.21165760187432,204.60891718999483 41.25760922441259,207.0" stroke="#4DD2FF" stroke-linecap="round" stroke-linejoin="round" stroke-width="0.5"><title>2024-11-22 1.4km</title><desc>1732235057000</desc></polyline><polyline fill="none" points="102.28117338242009,153.0 105.05116963293403,157.58590801560786 101.0591162131168,167.59995660826098 93.97118463134393,179.3920651928638 106.02881536819041,191.55837277852697 100.81470477953553,203.8181094978354 101.87382099265233,205.12830099707935 101.30352764762938,207.0" stroke="#4DD2FF" stroke-linecap="round" stroke-linejoin="round" stroke-width="0.5"><title>2024-11-21 1.5km</title><desc>1732147849000</desc></polyline><polyline fill="none" points="164.14312739809975,153.0 166.45371767738834,155.1051436307025 153.54628232307732,177.4376775305136 165.3382603013888,189.79356157156872 160.31870210776106,201.78318801731803 161.59351053787395,203.24755925463978 159.3625957854092,207.0" stroke="#4DD2FF" stroke-linecap="round" stroke-linejoin="round" stroke-width="0.5"><title>2024-11-19 1.5km</title><desc>1731974934000</desc></polyline><polyline fill="none" points="51.64597949641757,213.0 54.76101352600381,215.76514618081274 45.132726525655016,232.03052416897845 47.25661336421035,234.38897733198246 42.15928495209664,243.74139757367084 28.424816731363535,260.65680987545056 25.238986473996192,267.0" stroke="#4DD2FF" stroke-linecap="round" stroke-linejoin="round" stroke-width="0.5"><title>2024-11-18 1.4km</title><desc>1731889365000</desc></polyline></svg>