<?xml version="1.0" encoding="utf-8" ?>
<svg baseProfile="full" height="300mm" version="1.1" viewBox="0,0,200,300" width="200mm" xmlns="http://www.w3.org/2000/svg" xmlns:ev="http://www.w3.org/2001/xml-events" xmlns:xlink="http://www.w3.org/1999/xlink"><defs /><rect fill="#222222" height="300" width="200" x="0" y="0" /><text fill="#FFFFFF" style="font-size:12px; font-family:Arial; font-weight:bold;" x="10" y="20">Total</text><text fill="#FFFFFF" style="font-size:4px; font-family:Arial" x="10" y="280">ATHLETE</text><text fill="#FFFFFF" style="font-size:9px; font-family:Arial" x="10" y="290">Lam</text><text fill="#FFFFFF" style="font-size:4px; font-family:Arial" x="65" y="280">SPECIAL TRACKS</text><rect fill="yellow" height="2.6" width="2.6" x="65" y="283" /><text fill="#FFFFFF" style="font-size:3px; font-family:Arial" x="70" y="285.5">Over 10.0 km</text><rect fill="red" height="2.6" width="2.6" x="65" y="287" /><text fill="#FFFFFF" style="font-size:3px; font-family:Arial" x="70" y="289.5">Over 20.0 km</text><text fill="#FFFFFF" style="font-size:4px; font-family:Arial" x="120" y="280">STATISTICS</text><text fill="#FFFFFF" style="font-size:3px; font-family:Arial" x="120" y="285">Number: 14</text><text fill="#FFFFFF" style="font-size:3px; font-family:Arial" x="120" y="290">Weekly: 4.7</text><text fill="#FFFFFF" style="font-size:3px; font-family:Arial" x="141" y="285">Total: 20.8 km</text><text fill="#FFFFFF" style="font-size:3px; font-family:Arial" x="141" y="290">Avg: 1.5 km</text><text fill="#FFFFFF" style="font-size:3px; font-family:Arial" x="167" y="285">Min: 1.4 km</text><text fill="#FFFFFF" style="font-size:3px; font-family:Arial" x="167" y="290">Max: 1.6 km</text><polyline fill="none" points="39.522447967203334,32.399999999965075 28.477552032563835,51.54839999822434 35.456842101644725,58.086771598726045 38.506046500755474,62.52349289570702 34.440440635196865,71.63036896823905 35.11804161313921,73.18708940036595 34.03388004889712,75.59999999997672" stroke="#4DD2FF" stroke-linecap="round" stroke-linejoin="round" stroke-width="0.5"><title>2024-12-07 1.5km</title><desc>1733536100000</desc></polyline><polyline fill="none" points="104.14879989158362,32.399999999965075 94.8474581995979,48.54262906970689 105.1525418004021,59.68853488669265 100.93682578206062,66.60660312412074 98.66167745459825,75.59999999997672" stroke="#4DD2FF" stroke-linecap="round" stroke-linejoin="round" stroke-width="0.5"><title>2024-12-06 1.5km</title><desc>1733444217000</desc></polyline><polyline fill="none" points="169.84236650797538,32.399999999965075 171.52340185525827,34.88284901366569 165.08743795426562,47.73831314092968 172.24384557525627,55.35213966300944 169.07389320642687,62.41414695850108 169.93842567061074,63.131377085868735 169.21798195014708,64.400320442277 159.7561544245109,75.59999999997672" stroke="#4DD2FF" stroke-linecap="round" stroke-linejoin="round" stroke-width="0.5"><title>2024-12-05 1.6km</title><desc>1733358481000</desc></polyline><polyline fill="none" points="38.38072177977301,80.39999999996508 39.391657574800774,81.79358551214682 28.608342425199226,100.91642558254534 32.11291984887794,103.23900599696208 38.71770037827082,110.98089106212137 34.47177003789693,120.65813998237718 35.482705833390355,122.20648873480968 34.673957196995616,123.59999999997672" stroke="#4DD2FF" stroke-linecap="round" stroke-linejoin="round" stroke-width="0.5"><title>2024-12-04 1.5km</title><desc>1733270790000</desc></polyline><polyline fill="none" points="100.9789906151127,80.39999999996508 104.48985351063311,82.88193142815726 95.51014648913406,98.47138400137192 97.33309453120455,101.18593368923757 95.98276264825836,103.90047400299227 103.40958800446242,112.04403870063834 99.29107576119713,121.97131775133312 100.23630807967857,123.59999999997672" stroke="#4DD2FF" stroke-linecap="round" stroke-linejoin="round" stroke-width="0.5"><title>2024-12-03 1.6km</title><desc>1733185498000</desc></polyline><polyline fill="none" points="161.52598869637586,80.39999999996508 169.3476867794525,83.20340551348636 171.09974714997225,84.71292709029512 165.7809924534522,92.69177489163121 160.90025284979492,102.46754135919036 162.8400339744985,103.54574286408024 170.22371696471237,112.17129745800048 166.2190075465478,121.44365475152154 167.2201849007979,122.4499499949743 166.5944490544498,123.59999999997672" stroke="#4DD2FF" stroke-linecap="round" stroke-linejoin="round" stroke-width="0.5"><title>2024-12-02 1.5km</title><desc>1733098874000</desc></polyline><polyline fill="none" points="38.40006766002625,128.39999999996508 28.981172825209796,145.1432383127394 39.018827175023034,156.4368286258541 32.96873414237052,168.75692724552937 34.068751057144254,170.0205163830542 33.24373837071471,171.59999999997672" stroke="#4DD2FF" stroke-linecap="round" stroke-linejoin="round" stroke-width="0.5"><title>2024-11-28 1.5km</title><desc>1732753457000</desc></polyline><polyline fill="none" points="105.5485500774812,128.39999999996508 94.4514499225188,147.99373260245193 104.58954142197035,158.22320092614973 100.20550185465254,168.6885981260566 101.30151174659841,169.79021089570597 100.34250309085473,171.59999999997672" stroke="#4DD2FF" stroke-linecap="round" stroke-linejoin="round" stroke-width="0.5"><title>2024-11-27 1.5km</title><desc>1732667293000</desc></polyline><polyline fill="none" points="161.15054862364195,128.39999999996508 168.7219501270447,131.20340551331174 171.09974564053118,133.00045465509174 168.8470972594805,135.30067108792718 160.900254359236,150.25190086697694 170.16114214854315,160.09941825876012 166.15643391525373,169.58741129992995 167.15761097357608,170.5218281734269 166.6570224442985,171.59999999997672" stroke="#4DD2FF" stroke-linecap="round" stroke-linejoin="round" stroke-width="0.5"><title>2024-11-26 1.5km</title><desc>1732580565000</desc></polyline><polyline fill="none" points="34.82907363399863,176.39999999996508 38.21169406129047,178.76196721883025 35.49233254115097,181.96204031253 29.125047031091526,194.30505516025005 38.87495296867564,205.88597611163277 34.9617254154291,212.4382623518468 33.10460047493689,217.46672339050565 34.16581472661346,218.60955087834736 33.63520760065876,219.59999999997672" stroke="#4DD2FF" stroke-linecap="round" stroke-linejoin="round" stroke-width="0.5"><title>2024-11-25 1.4km</title><desc>1732494030000</desc></polyline><polyline fill="none" points="103.7815008412581,176.39999999996508 96.6348111780826,193.77592348621693 94.83079242822714,195.76855137373786 105.16920757200569,206.13013715820853 100.72854603384621,216.7306989293429 101.76932608173229,217.687133751926 101.0060873797629,219.59999999997672" stroke="#4DD2FF" stroke-linecap="round" stroke-linejoin="round" stroke-width="0.5"><title>2024-11-22 1.4km</title><desc>1732235057000</desc></polyline><polyline fill="none" points="167.82493870612234,176.39999999996508 170.04093570634723,180.06872641242808 166.84729297063313,188.07996528653894 161.17694770521484,197.51365215418627 170.82305229478516,207.24669822276337 166.6517638238147,217.05448759824503 167.49905679444782,218.1026407976169 167.04282211815007,219.59999999997672" stroke="#4DD2FF" stroke-linecap="round" stroke-linejoin="round" stroke-width="0.5"><title>2024-11-21 1.5km</title><desc>1732147849000</desc></polyline><polyline fill="none" points="37.31450191792101,224.40000000002328 39.16297414153814,226.08411490457365 28.837025858229026,243.95014202443417 38.27060824050568,253.83484925731318 34.25496168597601,263.42655041388934 35.27480842988007,264.5980474037351 33.49007662781514,267.5999999999767" stroke="#4DD2FF" stroke-linecap="round" stroke-linejoin="round" stroke-width="0.5"><title>2024-11-19 1.5km</title><desc>1731974934000</desc></polyline><polyline fill="none" points="109.31678359699436,224.39999999996508 111.80881082080305,226.6121169445687 104.10618122038431,239.62441933510127 105.80529069132172,241.51118186552776 101.72742796177045,248.9931180588901 90.7398533851374,262.5254479003488 88.19118917919695,267.5999999999767" stroke="#4DD2FF" stroke-linecap="round" stroke-linejoin="round" stroke-width="0.5"><title>2024-11-18 1.4km</title><desc>1731889365000</desc></polyline></svg>