<?xml version="1.0" encoding="utf-8" ?>
<svg baseProfile="full" height="300mm" version="1.1" viewBox="0,0,200,300" width="200mm" xmlns="http://www.w3.org/2000/svg" xmlns:ev="http://www.w3.org/2001/xml-events" xmlns:xlink="http://www.w3.org/1999/xlink"><defs /><rect fill="#222222" height="300" width="200" x="0" y="0" /><text fill="#FFFFFF" style="font-size:12px; font-family:Arial; font-weight:bold;" x="10" y="20">Total</text><text fill="#FFFFFF" style="font-size:4px; font-family:Arial" x="10" y="280">ATHLETE</text><text fill="#FFFFFF" style="font-size:9px; font-family:Arial" x="10" y="290">Lam</text><text fill="#FFFFFF" style="font-size:4px; font-family:Arial" x="65" y="280">SPECIAL TRACKS</text><rect fill="yellow" height="2.6" width="2.6" x="65" y="283" /><text fill="#FFFFFF" style="font-size:3px; font-family:Arial" x="70" y="285.5">Over 10.0 km</text><rect fill="red" height="2.6" width="2.6" x="65" y="287" /><text fill="#FFFFFF" style="font-size:3px; font-family:Arial" x="70" y="289.5">Over 20.0 km</text><text fill="#FFFFFF" style="font-size:4px; font-family:Arial" x="120" y="280">STATISTICS</text><text fill="#FFFFFF" style="font-size:3px; font-family:Arial" x="120" y="285">Number: 19</text><text fill="#FFFFFF" style="font-size:3px; font-family:Arial" x="120" y="290">Weekly: 2.7</text><text fill="#FFFFFF" style="font-size:3px; font-family:Arial" x="141" y="285">Total: 28.6 km</text><text fill="#FFFFFF" style="font-size:3px; font-family:Arial" x="141" y="290">Avg: 1.5 km</text><text fill="#FFFFFF" style="font-size:3px; font-family:Arial" x="167" y="285">Min: 1.3 km</text><text fill="#FFFFFF" style="font-size:3px; font-family:Arial" x="167" y="290">Max: 1.8 km</text><polyline fill="none" points="44.241292965831235,32.25 33.443206360097975,50.856357502460014 35.459716509561986,52.276100950082764 32.597573071718216,58.70227484690258 20.758707034168765,72.75" stroke="#4DD2FF" stroke-linecap="round" stroke-linejoin="round" stroke-width="0.5"><title>2025-01-21 1.3km</title><desc>1737419096000</desc></polyline><polyline fill="none" points="85.43755802907981,32.25 79.10259485151619,42.86266068686382 80.19613016187213,44.075519858684856 78.46155691100284,47.80070922189043 71.63638824946247,56.073981850378914 69.56244197092019,59.84238419809844 75.44490777887404,64.217155551014 74.99241040903144,65.25669877015753 76.08594571938738,66.77269488648744 74.91699418076314,72.75" stroke="#4DD2FF" stroke-linecap="round" stroke-linejoin="round" stroke-width="0.5"><title>2025-01-20 1.8km</title><desc>1737332628000</desc></polyline><polyline fill="none" points="121.38627737178467,32.25 130.74154744832776,42.119337556592654 126.66850469401106,51.69612463010708 127.55948279658332,52.64648606226547 126.85942857316695,54.40099627309246 114.25845255167224,69.24106231023325 116.10405004955828,72.75" stroke="#4DD2FF" stroke-linecap="round" stroke-linejoin="round" stroke-width="0.5"><title>2025-01-18 1.5km</title><desc>1737163887000</desc></polyline><polyline fill="none" points="171.43592778407037,32.25 172.84029638324864,33.39627883353387 166.81629423471168,43.79755829786882 167.88804921833798,44.26454862076207 172.32289742585272,49.528768110700184 169.99460211675614,54.750470593106 170.36417280090973,56.02404695239966 162.67710257438011,65.32104018729297 164.0075570368208,67.78322393336566 164.45104185747914,66.80684240927803 164.41408478911035,68.63224954501493 163.8966858314816,68.03793179275817 162.15970361675136,72.75" stroke="#4DD2FF" stroke-linecap="round" stroke-linejoin="round" stroke-width="0.5"><title>2025-01-03 1.8km</title><desc>1735863068000</desc></polyline><polyline fill="none" points="37.850829775910825,81.0 27.149170224322006,99.70417727984022 36.93166883289814,109.96111244428903 32.72979023610242,119.53915557550499 33.51764247287065,121.5" stroke="#4DD2FF" stroke-linecap="round" stroke-linejoin="round" stroke-width="0.5"><title>2024-12-09 1.4km</title><desc>1733703753000</desc></polyline><polyline fill="none" points="82.67729496955872,81.0 72.32270503067411,98.95162499835715 78.86578947049566,105.08134837384569 81.72441859473474,109.24077458976535 77.91291309567168,117.77847090776777 78.54816401237622,119.23789631290128 77.53176254592836,121.5" stroke="#4DD2FF" stroke-linecap="round" stroke-linejoin="round" stroke-width="0.5"><title>2024-12-07 1.5km</title><desc>1733536100000</desc></polyline><polyline fill="none" points="126.38949989853427,81.0 117.66949206218123,96.13371475285385 127.33050793781877,106.58300145628164 123.37827417068183,113.06869042885955 121.24532261374407,121.5" stroke="#4DD2FF" stroke-linecap="round" stroke-linejoin="round" stroke-width="0.5"><title>2024-12-06 1.5km</title><desc>1733444217000</desc></polyline><polyline fill="none" points="171.10221860115416,81.0 172.67818923923187,83.32767095032614 166.6444730819203,95.37966856965795 173.3536052268464,102.5176309341332 170.38177488092333,109.13826277363114 171.1922740661539,109.81066601804923 170.51685807830654,111.00030041468563 161.64639477292076,121.5" stroke="#4DD2FF" stroke-linecap="round" stroke-linejoin="round" stroke-width="0.5"><title>2024-12-05 1.6km</title><desc>1733358481000</desc></polyline><polyline fill="none" points="36.606926668435335,129.75 37.55467897630297,131.05648641765583 27.445321023697034,148.984148983669 30.73086235835217,151.16156812215922 36.92284410470165,158.4195853707497 32.94228441058658,167.4920062335441 33.89003671891987,168.94358318892773 33.131834872299805,170.25" stroke="#4DD2FF" stroke-linecap="round" stroke-linejoin="round" stroke-width="0.5"><title>2024-12-04 1.5km</title><desc>1733270790000</desc></polyline><polyline fill="none" points="78.41780370194465,129.75 81.70923766633496,132.07681071397383 73.29076233366504,146.69192250131164 74.99977612309158,149.2368128336966 73.73383998288773,151.78169437783072 80.69648875435814,159.4162862818921 76.83538352628238,168.723110391933 77.72153882472776,170.25" stroke="#4DD2FF" stroke-linecap="round" stroke-linejoin="round" stroke-width="0.5"><title>2024-12-03 1.6km</title><desc>1733185498000</desc></polyline><polyline fill="none" points="118.30561440298334,129.75 125.6384563560132,132.3781926688971 127.28101295325905,133.79336914722808 122.29468042543158,141.27353896095883 117.71898704674095,150.43832002423005 119.53753185132518,151.44913393515162 126.4597346545197,159.53559136693366 122.70531957503408,168.22842632961692 123.64392334478907,169.1718281203066 123.05729598877952,170.25" stroke="#4DD2FF" stroke-linecap="round" stroke-linejoin="round" stroke-width="0.5"><title>2024-12-02 1.5km</title><desc>1733098874000</desc></polyline><polyline fill="none" points="171.6250634312164,129.75 162.79484952357598,145.4467859182041 172.20515047642402,156.03452683676733 166.53318825829774,167.58461929269833 167.56445411592722,168.76923410908785 166.79100472247228,170.25" stroke="#4DD2FF" stroke-linecap="round" stroke-linejoin="round" stroke-width="0.5"><title>2024-11-28 1.5km</title><desc>1732753457000</desc></polyline><polyline fill="none" points="37.701765697682276,178.5 27.298234302317724,196.86912431486417 36.80269508319907,206.4592508682981 32.69265798875131,216.270560743229 33.72016726247966,217.30332271481166 32.821096647763625,219.0" stroke="#4DD2FF" stroke-linecap="round" stroke-linejoin="round" stroke-width="0.5"><title>2024-11-27 1.5km</title><desc>1732667293000</desc></polyline><polyline fill="none" points="72.9536393347662,178.5 80.05182824423537,181.12819266878068 82.2810115381144,182.81292623921763 80.16915368079208,184.96937914495356 72.7189884618856,198.9861570628127 81.4010707642883,208.21820461761672 77.64665679563768,217.1131980937207 78.58526028785855,217.98921391263139 78.1159585416317,219.0" stroke="#4DD2FF" stroke-linecap="round" stroke-linejoin="round" stroke-width="0.5"><title>2024-11-26 1.5km</title><desc>1732580565000</desc></polyline><polyline fill="none" points="123.27725653233938,178.5 126.44846318289638,180.7143442676752 123.89906175760552,183.71441279305145 117.92973159183748,195.28598921274533 127.07026840839535,206.143102604663 123.40161757729948,212.2858709549182 121.66056294552982,217.00005317863543 122.65545130660757,218.07145394844702 122.1580071260687,219.0" stroke="#4DD2FF" stroke-linecap="round" stroke-linejoin="round" stroke-width="0.5"><title>2024-11-25 1.4km</title><desc>1732494030000</desc></polyline><polyline fill="none" points="171.04515703837387,178.5 164.345135479467,194.7899282683502 162.65386790130287,196.65801691293018 172.3461320984643,206.37200358585687 168.18301190645434,216.3100302463281 169.15874320128933,217.20668789249612 168.44320691842586,219.0" stroke="#4DD2FF" stroke-linecap="round" stroke-linejoin="round" stroke-width="0.5"><title>2024-11-22 1.4km</title><desc>1732235057000</desc></polyline><polyline fill="none" points="34.210880036931485,227.25 36.288377224700525,230.689431011735 33.29433715995401,238.19996745616663 27.978388473624364,247.0440488946042 37.02161152637564,256.1687795838807 33.11102858488448,265.363582123362 33.90536574460566,266.3462257478386 33.477645735722035,267.75" stroke="#4DD2FF" stroke-linecap="round" stroke-linejoin="round" stroke-width="0.5"><title>2024-11-21 1.5km</title><desc>1732147849000</desc></polyline><polyline fill="none" points="80.60734554822557,227.25 82.34028825792484,228.82885772304144 72.65971174207516,245.57825814792886 81.50369522557594,254.8451711787493 77.73902658070438,263.8373910130467 78.69513290328905,264.93566944100894 77.02194683859125,267.75" stroke="#4DD2FF" stroke-linecap="round" stroke-linejoin="round" stroke-width="0.5"><title>2024-11-19 1.5km</title><desc>1731974934000</desc></polyline><polyline fill="none" points="131.2344846224878,227.25 133.57076014461927,229.3238596356241 126.34954489418305,241.52289312670473 127.94246002309956,243.2917329989723 124.11946371430531,250.30604818026768 113.81861254852265,262.9926074066316 111.42923985561356,267.75" stroke="#4DD2FF" stroke-linecap="round" stroke-linejoin="round" stroke-width="0.5"><title>2024-11-18 1.4km</title><desc>1731889365000</desc></polyline></svg>