<?xml version="1.0" encoding="utf-8" ?>
<svg baseProfile="full" height="300mm" version="1.1" viewBox="0,0,200,300" width="200mm" xmlns="http://www.w3.org/2000/svg" xmlns:ev="http://www.w3.org/2001/xml-events" xmlns:xlink="http://www.w3.org/1999/xlink"><defs /><rect fill="#222222" height="300" width="200" x="0" y="0" /><text fill="#FFFFFF" style="font-size:12px; font-family:Arial; font-weight:bold;" x="10" y="20">Total</text><text fill="#FFFFFF" style="font-size:4px; font-family:Arial" x="10" y="280">ATHLETE</text><text fill="#FFFFFF" style="font-size:9px; font-family:Arial" x="10" y="290">Lam</text><text fill="#FFFFFF" style="font-size:4px; font-family:Arial" x="65" y="280">SPECIAL TRACKS</text><rect fill="yellow" height="2.6" width="2.6" x="65" y="283" /><text fill="#FFFFFF" style="font-size:3px; font-family:Arial" x="70" y="285.5">Over 10.0 km</text><rect fill="red" height="2.6" width="2.6" x="65" y="287" /><text fill="#FFFFFF" style="font-size:3px; font-family:Arial" x="70" y="289.5">Over 20.0 km</text><text fill="#FFFFFF" style="font-size:4px; font-family:Arial" x="120" y="280">STATISTICS</text><text fill="#FFFFFF" style="font-size:3px; font-family:Arial" x="120" y="285">Number: 11</text><text fill="#FFFFFF" style="font-size:3px; font-family:Arial" x="120" y="290">Weekly: 3.7</text><text fill="#FFFFFF" style="font-size:3px; font-family:Arial" x="141" y="285">Total: 16.2 km</text><text fill="#FFFFFF" style="font-size:3px; font-family:Arial" x="141" y="290">Avg: 1.5 km</text><text fill="#FFFFFF" style="font-size:3px; font-family:Arial" x="167" y="285">Min: 1.4 km</text><text fill="#FFFFFF" style="font-size:3px; font-family:Arial" x="167" y="290">Max: 1.6 km</text><polyline fill="none" points="45.47590222442523,33.0 46.739571968559176,34.74198189016897 33.260428031440824,58.645531978225335 37.641149810981005,61.5487574962317 45.89712547278032,71.22611382766627 40.589712547603995,83.32267497805879 41.853382291737944,85.25811091857031 40.84244649624452,87.0" stroke="#4DD2FF" stroke-linecap="round" stroke-linejoin="round" stroke-width="0.5"><title>2024-12-04 1.5km</title><desc>1733270790000</desc></polyline><polyline fill="none" points="101.22373826894909,33.0 105.61231688829139,36.10241428524023 94.38768311170861,55.58923000172945 96.6663681641221,58.98241711151786 94.97845331020653,62.37559250375489 104.26198500581086,72.55504837585613 99.11384470155463,84.9641471891664 100.29538509948179,87.0" stroke="#4DD2FF" stroke-linecap="round" stroke-linejoin="round" stroke-width="0.5"><title>2024-12-03 1.6km</title><desc>1733185498000</desc></polyline><polyline fill="none" points="154.4074858711101,33.0 164.18460847483948,36.5042568918434 166.37468393798918,38.39115886291256 159.72624056739733,48.36471861455357 153.6253160624765,60.5844266989734 156.0500424685888,61.932178580143955 165.2796462061815,72.7141218225006 160.273759433534,84.30456843943102 161.52523112669587,85.56243749370333 160.7430613185279,87.0" stroke="#4DD2FF" stroke-linecap="round" stroke-linejoin="round" stroke-width="0.5"><title>2024-12-02 1.5km</title><desc>1733098874000</desc></polyline><polyline fill="none" points="45.500084574799985,93.0 33.726466031279415,113.92904789093882 46.273533968254924,128.04603578231763 38.71091767773032,143.4461590569117 40.08593882108107,145.0256454788032 39.05467296298593,147.0" stroke="#4DD2FF" stroke-linecap="round" stroke-linejoin="round" stroke-width="0.5"><title>2024-11-28 1.5km</title><desc>1732753457000</desc></polyline><polyline fill="none" points="106.9356875969097,93.0 93.0643124030903,117.49216575315222 105.73692677775398,130.27900115773082 100.2568773184903,143.36074765765807 101.62688968330622,144.73776361969067 100.42812886368483,147.0" stroke="#4DD2FF" stroke-linecap="round" stroke-linejoin="round" stroke-width="0.5"><title>2024-11-27 1.5km</title><desc>1732667293000</desc></polyline><polyline fill="none" points="153.93818578030914,93.0 163.40243765944615,96.50425689166877 166.37468205112964,98.75056831893744 163.55887157469988,101.62583885999629 153.62531794933602,120.31487608375028 165.20142768602818,132.62427282350836 160.19554239464924,144.48426412494155 161.4470137176104,145.65228521684185 160.8212780561298,147.0" stroke="#4DD2FF" stroke-linecap="round" stroke-linejoin="round" stroke-width="0.5"><title>2024-11-26 1.5km</title><desc>1732580565000</desc></polyline><polyline fill="none" points="41.03634204249829,153.0 45.264617576729506,155.95245902356692 41.86541567649692,159.95255039067706 33.9063087888062,175.3813189503271 46.09369121072814,189.85747013957007 41.20215676911175,198.04782793985214 38.88075059372932,204.33340423816117 40.20726840849966,205.76193859794876 39.54400950111449,207.0" stroke="#4DD2FF" stroke-linecap="round" stroke-linejoin="round" stroke-width="0.5"><title>2024-11-25 1.4km</title><desc>1732494030000</desc></polyline><polyline fill="none" points="104.72687605116516,153.0 95.79351397231221,174.71990435780026 93.53849053522572,177.21068921725964 106.46150946477428,190.16267144784797 100.9106825417839,203.4133736617514 102.21165760187432,204.60891718999483 101.25760922441259,207.0" stroke="#4DD2FF" stroke-linecap="round" stroke-linejoin="round" stroke-width="0.5"><title>2024-11-22 1.4km</title><desc>1732235057000</desc></polyline><polyline fill="none" points="162.2811733824201,153.0 165.05116963293403,157.58590801560786 161.0591162131168,167.59995660826098 153.97118463134393,179.3920651928638 166.0288153681904,191.55837277852697 160.81470477953553,203.8181094978354 161.87382099265233,205.12830099707935 161.30352764762938,207.0" stroke="#4DD2FF" stroke-linecap="round" stroke-linejoin="round" stroke-width="0.5"><title>2024-11-21 1.5km</title><desc>1732147849000</desc></polyline><polyline fill="none" points="44.14312739809975,213.0 46.45371767738834,215.1051436307025 33.54628232307732,237.4376775305136 45.3382603013888,249.79356157156872 40.318702107761055,261.783188017318 41.593510537873954,263.2475592546398 39.36259578540921,267.0" stroke="#4DD2FF" stroke-linecap="round" stroke-linejoin="round" stroke-width="0.5"><title>2024-11-19 1.5km</title><desc>1731974934000</desc></polyline><polyline fill="none" points="111.64597949641757,213.0 114.76101352600381,215.76514618081274 105.13272652565502,232.03052416897845 107.25661336421035,234.38897733198246 102.15928495209664,243.74139757367084 88.42481673136353,260.65680987545056 85.23898647399619,267.0" stroke="#4DD2FF" stroke-linecap="round" stroke-linejoin="round" stroke-width="0.5"><title>2024-11-18 1.4km</title><desc>1731889365000</desc></polyline></svg>