<?xml version="1.0" encoding="utf-8" ?>
<svg baseProfile="full" height="300mm" version="1.1" viewBox="0,0,200,300" width="200mm" xmlns="http://www.w3.org/2000/svg" xmlns:ev="http://www.w3.org/2001/xml-events" xmlns:xlink="http://www.w3.org/1999/xlink"><defs /><rect fill="#222222" height="300" width="200" x="0" y="0" /><text fill="#FFFFFF" style="font-size:12px; font-family:Arial; font-weight:bold;" x="10" y="20">Total</text><text fill="#FFFFFF" style="font-size:4px; font-family:Arial" x="10" y="280">ATHLETE</text><text fill="#FFFFFF" style="font-size:9px; font-family:Arial" x="10" y="290">Lam</text><text fill="#FFFFFF" style="font-size:4px; font-family:Arial" x="65" y="280">SPECIAL TRACKS</text><rect fill="yellow" height="2.6" width="2.6" x="65" y="283" /><text fill="#FFFFFF" style="font-size:3px; font-family:Arial" x="70" y="285.5">Over 10.0 km</text><rect fill="red" height="2.6" width="2.6" x="65" y="287" /><text fill="#FFFFFF" style="font-size:3px; font-family:Arial" x="70" y="289.5">Over 20.0 km</text><text fill="#FFFFFF" style="font-size:4px; font-family:Arial" x="120" y="280">STATISTICS</text><text fill="#FFFFFF" style="font-size:3px; font-family:Arial" x="120" y="285">Number: 18</text><text fill="#FFFFFF" style="font-size:3px; font-family:Arial" x="120" y="290">Weekly: 2.6</text><text fill="#FFFFFF" style="font-size:3px; font-family:Arial" x="141" y="285">Total: 27.3 km</text><text fill="#FFFFFF" style="font-size:3px; font-family:Arial" x="141" y="290">Avg: 1.5 km</text><text fill="#FFFFFF" style="font-size:3px; font-family:Arial" x="167" y="285">Min: 1.4 km</text><text fill="#FFFFFF" style="font-size:3px; font-family:Arial" x="167" y="290">Max: 1.8 km</text><polyline fill="none" points="40.43755802907981,32.25 34.10259485151619,42.86266068686382 35.196130161872134,44.075519858684856 33.461556911002845,47.80070922189043 26.63638824946247,56.073981850378914 24.56244197092019,59.84238419809844 30.44490777887404,64.217155551014 29.992410409031436,65.25669877015753 31.085945719387382,66.77269488648744 29.91699418076314,72.75" stroke="#4DD2FF" stroke-linecap="round" stroke-linejoin="round" stroke-width="0.5"><title>2025-01-20 1.8km</title><desc>1737332628000</desc></polyline><polyline fill="none" points="76.38627737178467,32.25 85.74154744832776,42.119337556592654 81.66850469401106,51.69612463010708 82.55948279658332,52.64648606226547 81.85942857316695,54.40099627309246 69.25845255167224,69.24106231023325 71.10405004955828,72.75" stroke="#4DD2FF" stroke-linecap="round" stroke-linejoin="round" stroke-width="0.5"><title>2025-01-18 1.5km</title><desc>1737163887000</desc></polyline><polyline fill="none" points="126.43592778407037,32.25 127.84029638324864,33.39627883353387 121.81629423471168,43.79755829786882 122.88804921833798,44.26454862076207 127.32289742585272,49.528768110700184 124.99460211675614,54.750470593106 125.36417280090973,56.02404695239966 117.67710257438011,65.32104018729297 119.0075570368208,67.78322393336566 119.45104185747914,66.80684240927803 119.41408478911035,68.63224954501493 118.89668583148159,68.03793179275817 117.15970361675136,72.75" stroke="#4DD2FF" stroke-linecap="round" stroke-linejoin="round" stroke-width="0.5"><title>2025-01-03 1.8km</title><desc>1735863068000</desc></polyline><polyline fill="none" points="172.85082977591082,32.25 162.149170224322,50.95417727984022 171.93166883289814,61.21111244428903 167.72979023610242,70.78915557550499 168.51764247287065,72.75" stroke="#4DD2FF" stroke-linecap="round" stroke-linejoin="round" stroke-width="0.5"><title>2024-12-09 1.4km</title><desc>1733703753000</desc></polyline><polyline fill="none" points="37.677294969558716,81.0 27.322705030674115,98.95162499835715 33.865789470495656,105.08134837384569 36.72441859473474,109.24077458976535 32.91291309567168,117.77847090776777 33.54816401237622,119.23789631290128 32.53176254592836,121.5" stroke="#4DD2FF" stroke-linecap="round" stroke-linejoin="round" stroke-width="0.5"><title>2024-12-07 1.5km</title><desc>1733536100000</desc></polyline><polyline fill="none" points="81.38949989853427,81.0 72.66949206218123,96.13371475285385 82.33050793781877,106.58300145628164 78.37827417068183,113.06869042885955 76.24532261374407,121.5" stroke="#4DD2FF" stroke-linecap="round" stroke-linejoin="round" stroke-width="0.5"><title>2024-12-06 1.5km</title><desc>1733444217000</desc></polyline><polyline fill="none" points="126.10221860115416,81.0 127.67818923923187,83.32767095032614 121.6444730819203,95.37966856965795 128.3536052268464,102.5176309341332 125.38177488092333,109.13826277363114 126.19227406615391,109.81066601804923 125.51685807830654,111.00030041468563 116.64639477292076,121.5" stroke="#4DD2FF" stroke-linecap="round" stroke-linejoin="round" stroke-width="0.5"><title>2024-12-05 1.6km</title><desc>1733358481000</desc></polyline><polyline fill="none" points="171.60692666843534,81.0 172.55467897630297,82.30648641765583 162.44532102369703,100.234148983669 165.73086235835217,102.41156812215922 171.92284410470165,109.6695853707497 167.94228441058658,118.74200623354409 168.89003671891987,120.19358318892773 168.1318348722998,121.5" stroke="#4DD2FF" stroke-linecap="round" stroke-linejoin="round" stroke-width="0.5"><title>2024-12-04 1.5km</title><desc>1733270790000</desc></polyline><polyline fill="none" points="33.41780370194465,129.75 36.70923766633496,132.07681071397383 28.290762333665043,146.69192250131164 29.99977612309158,149.2368128336966 28.73383998288773,151.78169437783072 35.69648875435814,159.4162862818921 31.835383526282385,168.723110391933 32.72153882472776,170.25" stroke="#4DD2FF" stroke-linecap="round" stroke-linejoin="round" stroke-width="0.5"><title>2024-12-03 1.6km</title><desc>1733185498000</desc></polyline><polyline fill="none" points="73.30561440298334,129.75 80.6384563560132,132.3781926688971 82.28101295325905,133.79336914722808 77.29468042543158,141.27353896095883 72.71898704674095,150.43832002423005 74.53753185132518,151.44913393515162 81.4597346545197,159.53559136693366 77.70531957503408,168.22842632961692 78.64392334478907,169.1718281203066 78.05729598877952,170.25" stroke="#4DD2FF" stroke-linecap="round" stroke-linejoin="round" stroke-width="0.5"><title>2024-12-02 1.5km</title><desc>1733098874000</desc></polyline><polyline fill="none" points="126.6250634312164,129.75 117.79484952357598,145.4467859182041 127.20515047642402,156.03452683676733 121.53318825829774,167.58461929269833 122.56445411592722,168.76923410908785 121.79100472247228,170.25" stroke="#4DD2FF" stroke-linecap="round" stroke-linejoin="round" stroke-width="0.5"><title>2024-11-28 1.5km</title><desc>1732753457000</desc></polyline><polyline fill="none" points="172.70176569768228,129.75 162.29823430231772,148.11912431486417 171.80269508319907,157.7092508682981 167.6926579887513,167.520560743229 168.72016726247966,168.55332271481166 167.82109664776362,170.25" stroke="#4DD2FF" stroke-linecap="round" stroke-linejoin="round" stroke-width="0.5"><title>2024-11-27 1.5km</title><desc>1732667293000</desc></polyline><polyline fill="none" points="27.953639334766194,178.5 35.05182824423537,181.12819266878068 37.2810115381144,182.81292623921763 35.16915368079208,184.96937914495356 27.7189884618856,198.9861570628127 36.401070764288306,208.21820461761672 32.64665679563768,217.1131980937207 33.585260287858546,217.98921391263139 33.1159585416317,219.0" stroke="#4DD2FF" stroke-linecap="round" stroke-linejoin="round" stroke-width="0.5"><title>2024-11-26 1.5km</title><desc>1732580565000</desc></polyline><polyline fill="none" points="78.27725653233938,178.5 81.44846318289638,180.7143442676752 78.89906175760552,183.71441279305145 72.92973159183748,195.28598921274533 82.07026840839535,206.143102604663 78.40161757729948,212.2858709549182 76.66056294552982,217.00005317863543 77.65545130660757,218.07145394844702 77.1580071260687,219.0" stroke="#4DD2FF" stroke-linecap="round" stroke-linejoin="round" stroke-width="0.5"><title>2024-11-25 1.4km</title><desc>1732494030000</desc></polyline><polyline fill="none" points="126.04515703837387,178.5 119.34513547946699,194.7899282683502 117.65386790130287,196.65801691293018 127.3461320984643,206.37200358585687 123.18301190645434,216.3100302463281 124.15874320128933,217.20668789249612 123.44320691842586,219.0" stroke="#4DD2FF" stroke-linecap="round" stroke-linejoin="round" stroke-width="0.5"><title>2024-11-22 1.4km</title><desc>1732235057000</desc></polyline><polyline fill="none" points="169.21088003693148,178.5 171.28837722470053,181.939431011735 168.294337159954,189.44996745616663 162.97838847362436,198.2940488946042 172.02161152637564,207.41877958388068 168.11102858488448,216.613582123362 168.90536574460566,217.59622574783862 168.47764573572204,219.0" stroke="#4DD2FF" stroke-linecap="round" stroke-linejoin="round" stroke-width="0.5"><title>2024-11-21 1.5km</title><desc>1732147849000</desc></polyline><polyline fill="none" points="35.60734554822557,227.25 37.34028825792484,228.82885772304144 27.65971174207516,245.57825814792886 36.50369522557594,254.8451711787493 32.739026580704376,263.8373910130467 33.69513290328905,264.93566944100894 32.02194683859125,267.75" stroke="#4DD2FF" stroke-linecap="round" stroke-linejoin="round" stroke-width="0.5"><title>2024-11-19 1.5km</title><desc>1731974934000</desc></polyline><polyline fill="none" points="86.2344846224878,227.25 88.57076014461927,229.3238596356241 81.34954489418305,241.52289312670473 82.94246002309956,243.2917329989723 79.11946371430531,250.30604818026768 68.81861254852265,262.9926074066316 66.42923985561356,267.75" stroke="#4DD2FF" stroke-linecap="round" stroke-linejoin="round" stroke-width="0.5"><title>2024-11-18 1.4km</title><desc>1731889365000</desc></polyline></svg>