<?xml version="1.0" encoding="utf-8" ?>
<svg baseProfile="full" height="300mm" version="1.1" viewBox="0,0,200,300" width="200mm" xmlns="http://www.w3.org/2000/svg" xmlns:ev="http://www.w3.org/2001/xml-events" xmlns:xlink="http://www.w3.org/1999/xlink"><defs /><rect fill="#222222" height="300" width="200" x="0" y="0" /><text fill="#FFFFFF" style="font-size:12px; font-family:Arial; font-weight:bold;" x="10" y="20">Total</text><text fill="#FFFFFF" style="font-size:4px; font-family:Arial" x="10" y="280">ATHLETE</text><text fill="#FFFFFF" style="font-size:9px; font-family:Arial" x="10" y="290">Lam</text><text fill="#FFFFFF" style="font-size:4px; font-family:Arial" x="65" y="280">SPECIAL TRACKS</text><rect fill="yellow" height="2.6" width="2.6" x="65" y="283" /><text fill="#FFFFFF" style="font-size:3px; font-family:Arial" x="70" y="285.5">Over 10.0 km</text><rect fill="red" height="2.6" width="2.6" x="65" y="287" /><text fill="#FFFFFF" style="font-size:3px; font-family:Arial" x="70" y="289.5">Over 20.0 km</text><text fill="#FFFFFF" style="font-size:4px; font-family:Arial" x="120" y="280">STATISTICS</text><text fill="#FFFFFF" style="font-size:3px; font-family:Arial" x="120" y="285">Number: 21</text><text fill="#FFFFFF" style="font-size:3px; font-family:Arial" x="120" y="290">Weekly: 2.3</text><text fill="#FFFFFF" style="font-size:3px; font-family:Arial" x="141" y="285">Total: 35.2 km</text><text fill="#FFFFFF" style="font-size:3px; font-family:Arial" x="141" y="290">Avg: 1.7 km</text><text fill="#FFFFFF" style="font-size:3px; font-family:Arial" x="167" y="285">Min: 1.3 km</text><text fill="#FFFFFF" style="font-size:3px; font-family:Arial" x="167" y="290">Max: 5.1 km</text><polyline fill="none" points="40.00131027714815,32.27422902583203 39.85636375145987,32.64639654921484 40.50862311734818,32.019587796661654 39.965073645696975,32.0 38.098887126659974,34.27217504805594 37.664047549362294,35.89794387170696 36.50447534327395,36.622681072956766 35.99716250319034,38.307197950955015 32.98952209367417,38.228848558981554 31.793713256251067,37.83710126236838 30.97838904883247,37.05360498387017 30.090591578627937,37.68040218639362 29.619515369879082,38.71853188992827 28.677362952497788,39.20821434324898 28.133813480846584,39.932942763422034 28.314996638102457,40.28551265108399 27.75332885084208,40.40303584589856 26.285745277418755,39.20821434324898 24.292730548302643,41.637026339245494 23.241868236567825,41.441155204491224 22.607727186288685,40.93188959690451 22.752673712093383,40.03087888893788 22.73455539648421,40.26592544701998 22.970093500684015,40.22675103471556 21.9373495047912,41.42156808328582 23.259986552293412,42.55761879190686 23.169394973665476,43.536969059932744 23.549879603786394,42.94935932033695 23.966600865358487,43.14522937392758 23.423051393707283,43.02770735863305 22.40842571342364,44.516315817818395 21.774284663260914,44.84929291588196 21.7924029789865,45.18226960822358 20.940842140233144,46.416238518228056 20.324819405796006,46.710039818353835 20.197991195716895,47.19970794989786 19.49137688265182,47.82648187788436 20.216109511442482,48.453254368316266 21.357563401805237,48.649120476751705 25.615367595804855,53.780762498034164 26.702466538990848,53.60448631684994 27.75332885084208,54.15290072947391 28.478061479516327,53.917866115953075 28.84042779391166,53.389037496526726 30.199301472865045,53.310692428800394 30.597904418827966,53.5457275644585 30.380484630120918,53.80034873339173 30.97838904883247,54.36834894763888 31.17769052181393,55.15179558204545 31.521938520483673,55.19096785481088 31.82994988770224,54.46627989974513 31.558175151818432,53.212761062633945 31.594411783269607,54.40752133267233 31.974896413390525,55.014692583165015 32.95328546222299,55.367243012806284 33.06199535657652,53.50655505590839 33.71425472246483,55.210553989119944 34.14909429976251,54.87758951548312 33.514953249599785,55.328070765259326 32.6815107264556,55.053864875546424 33.42436167097185,55.24972625343071 33.55118988105096,56.48364970656985 33.949792826897465,56.62075196859951 33.65989977528807,57.09081634487666 35.09124671726022,58.85355055599939 35.761624398757704,59.01023749126762 35.960925871739164,58.67727764642041 36.323292186134495,58.99065162925399 37.62781091791112,58.40307511675928 35.85221597738564,63.808731389959576 36.08775408170186,65.35598289193877 36.35952881758567,65.55183688802936 36.921196604846045,68.0 36.88495997339487,67.39285759256745 36.12399071326945,67.29493127155001" stroke="#4DD2FF" stroke-linecap="round" stroke-linejoin="round" stroke-width="0.5"><title>2025-04-04 5.1km</title><desc>1743730371000</desc></polyline><polyline fill="none" points="59.2504504499957,43.966517618857324 60.41801801742986,43.184390605892986 58.666666666511446,43.74305281264242 59.54234234197065,41.28493704192806 60.80720720719546,45.86596669070423 60.02882882859558,44.07825000525918 61.58558558532968,42.17879793874454 60.22342342324555,41.73186757869553 62.46126126125455,41.843600185005926 63.726126125548035,39.72067877696827 62.07207207148895,40.502808179240674 64.40720720682293,43.0726581311319 62.55855855764821,42.513995593530126 63.726126125548035,41.843600185005926 62.65585585543886,39.27374744741246 62.85045045008883,42.06706536526326 64.40720720682293,41.843600185005926 63.82342342333868,43.0726581311319 66.74234234215692,47.31848442228511 64.79639639565721,47.09502027684357 59.44504504511133,40.391075440333225 66.4504504497163,42.84919314912986 61.78018017951399,42.625728122889996 66.35315315285698,48.882732206140645 64.11531531484798,50.111782522522844 64.50450450414792,51.56429481564555 68.6882882877253,52.34641604893841 80.65585585543886,60.72625255258754 87.07747747702524,50.223514303797856 94.66666666651145,53.910656897118315" stroke="#4DD2FF" stroke-linecap="round" stroke-linejoin="round" stroke-width="0.5"><title>2025-01-29 1.5km</title><desc>1738136859000</desc></polyline><polyline fill="none" points="133.77003819169477,32.0 124.17173898685724,48.53898444666993 125.96419245307334,49.800978622282855 123.42006495269015,55.513133197207935 112.89662847481668,68.0" stroke="#4DD2FF" stroke-linecap="round" stroke-linejoin="round" stroke-width="0.5"><title>2025-01-21 1.3km</title><desc>1737419096000</desc></polyline><polyline fill="none" points="177.05560713692103,32.0 171.4245287568774,41.43347616610117 172.3965601439122,42.51157320771017 170.854717254173,45.82285264166421 164.7879006662406,53.1768727558956 162.94439286307897,56.52656373163336 168.1732513589086,60.41524937865324 167.7710314746946,61.33928779567941 168.743062861613,62.68683989910642 167.7039948272286,68.0" stroke="#4DD2FF" stroke-linecap="round" stroke-linejoin="round" stroke-width="0.5"><title>2025-01-20 1.8km</title><desc>1737332628000</desc></polyline><polyline fill="none" points="29.010024330345914,72.0 37.325819954043254,80.77274449472316 33.70533750578761,89.2854441155796 34.49731804127805,90.13020983309252 33.875047620385885,91.68977446493227 22.674180045956746,104.88094427576289 24.314711155137047,108.0" stroke="#4DD2FF" stroke-linecap="round" stroke-linejoin="round" stroke-width="0.5"><title>2025-01-18 1.5km</title><desc>1737163887000</desc></polyline><polyline fill="none" points="80.16526914143469,72.0 81.41359678516164,73.01891451870324 76.05892820865847,82.26449626477552 77.01159930508584,82.67959877403337 80.95368660066742,87.35890498731169 78.88409077050164,92.00041830498958 79.21259804512374,93.13248617993668 72.37964673282113,101.3964801664988 73.56227292155381,103.58508794079535 73.95648165117018,102.71719325269805 73.92363092361484,104.33977737335954 73.46372073912062,103.81149492692202 71.9197365482105,108.0" stroke="#4DD2FF" stroke-linecap="round" stroke-linejoin="round" stroke-width="0.5"><title>2025-01-03 1.8km</title><desc>1735863068000</desc></polyline><polyline fill="none" points="128.08962646732107,72.0 118.57704019942321,88.62593535979977 127.2725945180282,97.74321106157731 123.53759132092819,106.25702717818785 124.2379044201225,108.0" stroke="#4DD2FF" stroke-linecap="round" stroke-linejoin="round" stroke-width="0.5"><title>2024-12-09 1.4km</title><desc>1733703753000</desc></polyline><polyline fill="none" points="174.60203997278586,72.0 165.39796002721414,87.95699999853969 171.21403508493677,93.40564299898688 173.7550387508236,97.10291074647103 170.36703386274166,104.69197414023802 170.9317013444379,105.98924116702983 170.02823337423615,108.0" stroke="#4DD2FF" stroke-linecap="round" stroke-linejoin="round" stroke-width="0.5"><title>2024-12-07 1.5km</title><desc>1733536100000</desc></polyline><polyline fill="none" points="33.45733324298635,112.0 25.70621516625397,125.45219089143211 34.29378483374603,134.74044573889114 30.780688151717186,140.50550260342425 28.884731212165207,148.0" stroke="#4DD2FF" stroke-linecap="round" stroke-linejoin="round" stroke-width="0.5"><title>2024-12-06 1.5km</title><desc>1733444217000</desc></polyline><polyline fill="none" points="79.86863875668496,112.0 81.26950154616497,114.06904084476992 75.90619829529896,124.7819276174705 81.8698713129852,131.12678305254667 79.22824433865026,137.01178913214244 79.94868805888109,137.60948090493912 79.34831829206087,138.6669337019266 71.46346202050336,148.0" stroke="#4DD2FF" stroke-linecap="round" stroke-linejoin="round" stroke-width="0.5"><title>2024-12-05 1.6km</title><desc>1733358481000</desc></polyline><polyline fill="none" points="126.9839348164387,112.0 127.8263813124504,113.16132126009325 118.84028535429388,129.0970213187975 121.760766540654,131.032504997449 127.26475031510927,137.48407588509144 123.72647503158078,145.54844998533372 124.5689215278253,146.8387406123802 123.89496433082968,148.0" stroke="#4DD2FF" stroke-linecap="round" stroke-linejoin="round" stroke-width="0.5"><title>2024-12-04 1.5km</title><desc>1733270790000</desc></polyline><polyline fill="none" points="170.81582551286556,112.0 173.7415445924271,114.06827619019896 166.25845540780574,127.05948666785844 167.77757877623662,129.32161140767857 166.65230220695958,131.583728335856 172.84132333728485,138.37003225059016 169.40922980126925,146.6427647927776 170.19692339980975,148.0" stroke="#4DD2FF" stroke-linecap="round" stroke-linejoin="round" stroke-width="0.5"><title>2024-12-03 1.6km</title><desc>1733185498000</desc></polyline><polyline fill="none" points="26.2716572470963,152.0 32.78973898314871,154.33617126120953 34.24978929199278,155.59410590858897 29.817493711365387,162.2431457430357 25.750210708240047,170.3896177993156 27.36669497890398,171.2881190534099 33.51976413745433,178.4760812150198 30.182506288867444,186.20304562628735 31.01682075089775,187.04162499582162 30.495374212274328,188.0" stroke="#4DD2FF" stroke-linecap="round" stroke-linejoin="round" stroke-width="0.5"><title>2024-12-02 1.5km</title><desc>1733098874000</desc></polyline><polyline fill="none" points="80.33338971668854,152.0 72.48431068751961,165.952698593901 80.84902264573611,175.36402385483962 75.80727845197544,185.6307727046078 76.72395921428688,186.68376365251606 76.03644864237867,188.0" stroke="#4DD2FF" stroke-linecap="round" stroke-linejoin="round" stroke-width="0.5"><title>2024-11-28 1.5km</title><desc>1732753457000</desc></polyline><polyline fill="none" points="127.95712506468408,152.0 118.7095416020602,168.32811050210148 127.1579511850141,176.85266743850661 123.50458487891592,185.57383177173324 124.41792645538226,186.4918424130883 123.61875257571228,188.0" stroke="#4DD2FF" stroke-linecap="round" stroke-linejoin="round" stroke-width="0.5"><title>2024-11-27 1.5km</title><desc>1732667293000</desc></polyline><polyline fill="none" points="165.95879051997326,152.0 172.26829177280888,154.3361712610931 174.24978803400882,155.83371221256675 172.37258104979992,157.75055923993932 165.75021196622401,170.20991738914745 173.4676184572745,178.4161818823195 170.13036159635521,186.32284274994163 170.96467581158504,187.10152347787516 170.5475187038537,188.0" stroke="#4DD2FF" stroke-linecap="round" stroke-linejoin="round" stroke-width="0.5"><title>2024-11-26 1.5km</title><desc>1732580565000</desc></polyline><polyline fill="none" points="30.69089469523169,192.0 33.509745051153004,193.96830601571128 31.24361045099795,196.63503359386232 25.937539192615077,206.92087930021808 34.06246080738492,216.57164675975218 30.801437846152112,222.03188529325416 29.2538337293081,226.22226949216565 30.138178938999772,227.17462573200464 29.696006333921105,228.0" stroke="#4DD2FF" stroke-linecap="round" stroke-linejoin="round" stroke-width="0.5"><title>2024-11-25 1.4km</title><desc>1732494030000</desc></polyline><polyline fill="none" points="79.81791736767627,192.0 73.86234264844097,206.4799362385529 72.35899369022809,208.1404594781925 80.97433964326046,216.7751142985653 77.27378836134449,225.60891577450093 78.14110506791621,226.40594479331048 77.50507281650789,228.0" stroke="#4DD2FF" stroke-linecap="round" stroke-linejoin="round" stroke-width="0.5"><title>2024-11-22 1.4km</title><desc>1732235057000</desc></polyline><polyline fill="none" points="124.85411558835767,192.0 126.70077975536697,195.05727201036643 124.03941080905497,201.73330440546852 119.31412308779545,209.59471012849826 127.35254357894883,217.7055818522931 123.87646985333413,225.8787396652042 124.58254732866772,226.75220066471957 124.20235176524147,228.0" stroke="#4DD2FF" stroke-linecap="round" stroke-linejoin="round" stroke-width="0.5"><title>2024-11-21 1.5km</title><desc>1732147849000</desc></polyline><polyline fill="none" points="172.76208493160084,192.0 174.3024784512818,193.403429087135 165.69752154848538,208.291785020323 173.55884020053782,216.52904104773188 170.21246807160787,224.52212534483988 171.0623403582722,225.49837283638772 169.5750638563186,228.0" stroke="#4DD2FF" stroke-linecap="round" stroke-linejoin="round" stroke-width="0.5"><title>2024-11-19 1.5km</title><desc>1731974934000</desc></polyline><polyline fill="none" points="37.763986330945045,232.0 39.84067568415776,233.84343078715028 33.42181768361479,244.6870161126135 34.83774224272929,246.25931822124403 31.43952330155298,252.4942650491139 22.283211154164746,263.7712065835949 20.15932431607507,268.0" stroke="#4DD2FF" stroke-linecap="round" stroke-linejoin="round" stroke-width="0.5"><title>2024-11-18 1.4km</title><desc>1731889365000</desc></polyline></svg>