<?xml version="1.0" encoding="utf-8" ?>
<svg baseProfile="full" height="300mm" version="1.1" viewBox="0,0,200,300" width="200mm" xmlns="http://www.w3.org/2000/svg" xmlns:ev="http://www.w3.org/2001/xml-events" xmlns:xlink="http://www.w3.org/1999/xlink"><defs /><rect fill="#222222" height="300" width="200" x="0" y="0" /><text fill="#FFFFFF" style="font-size:12px; font-family:Arial; font-weight:bold;" x="10" y="20">Total</text><text fill="#FFFFFF" style="font-size:4px; font-family:Arial" x="10" y="280">ATHLETE</text><text fill="#FFFFFF" style="font-size:9px; font-family:Arial" x="10" y="290">Lam</text><text fill="#FFFFFF" style="font-size:4px; font-family:Arial" x="65" y="280">SPECIAL TRACKS</text><rect fill="yellow" height="2.6" width="2.6" x="65" y="283" /><text fill="#FFFFFF" style="font-size:3px; font-family:Arial" x="70" y="285.5">Over 10.0 km</text><rect fill="red" height="2.6" width="2.6" x="65" y="287" /><text fill="#FFFFFF" style="font-size:3px; font-family:Arial" x="70" y="289.5">Over 20.0 km</text><text fill="#FFFFFF" style="font-size:4px; font-family:Arial" x="120" y="280">STATISTICS</text><text fill="#FFFFFF" style="font-size:3px; font-family:Arial" x="120" y="285">Number: 12</text><text fill="#FFFFFF" style="font-size:3px; font-family:Arial" x="120" y="290">Weekly: 4.0</text><text fill="#FFFFFF" style="font-size:3px; font-family:Arial" x="141" y="285">Total: 17.8 km</text><text fill="#FFFFFF" style="font-size:3px; font-family:Arial" x="141" y="290">Avg: 1.5 km</text><text fill="#FFFFFF" style="font-size:3px; font-family:Arial" x="167" y="285">Min: 1.4 km</text><text fill="#FFFFFF" style="font-size:3px; font-family:Arial" x="167" y="290">Max: 1.6 km</text><polyline fill="none" points="44.80295813502744,33.0 46.904252318898216,36.10356126714032 38.859297442715615,52.1728914261912 47.80480696912855,61.690174578805454 43.842366507975385,70.51768369821366 44.92303208820522,71.41422135737957 44.022477437742054,73.00040055287536 32.19519303063862,87.0" stroke="#4DD2FF" stroke-linecap="round" stroke-linejoin="round" stroke-width="0.5"><title>2024-12-05 1.6km</title><desc>1733358481000</desc></polyline><polyline fill="none" points="105.47590222442523,33.0 106.73957196855918,34.74198189016897 93.26042803144082,58.645531978225335 97.641149810981,61.5487574962317 105.89712547278032,71.22611382766627 100.589712547604,83.32267497805879 101.85338229173794,85.25811091857031 100.84244649624452,87.0" stroke="#4DD2FF" stroke-linecap="round" stroke-linejoin="round" stroke-width="0.5"><title>2024-12-04 1.5km</title><desc>1733270790000</desc></polyline><polyline fill="none" points="161.2237382689491,33.0 165.6123168882914,36.10241428524023 154.3876831117086,55.58923000172945 156.6663681641221,58.98241711151786 154.97845331020653,62.37559250375489 164.26198500581086,72.55504837585613 159.11384470155463,84.9641471891664 160.2953850994818,87.0" stroke="#4DD2FF" stroke-linecap="round" stroke-linejoin="round" stroke-width="0.5"><title>2024-12-03 1.6km</title><desc>1733185498000</desc></polyline><polyline fill="none" points="34.40748587111011,93.0 44.18460847483948,96.5042568918434 46.374683937989175,98.39115886291256 39.726240567397326,108.36471861455357 33.625316062476486,120.5844266989734 36.0500424685888,121.93217858014395 45.279646206181496,132.7141218225006 40.273759433533996,144.30456843943102 41.52523112669587,145.56243749370333 40.74306131852791,147.0" stroke="#4DD2FF" stroke-linecap="round" stroke-linejoin="round" stroke-width="0.5"><title>2024-12-02 1.5km</title><desc>1733098874000</desc></polyline><polyline fill="none" points="105.50008457479998,93.0 93.72646603127941,113.92904789093882 106.27353396825492,128.04603578231763 98.71091767773032,143.4461590569117 100.08593882108107,145.0256454788032 99.05467296298593,147.0" stroke="#4DD2FF" stroke-linecap="round" stroke-linejoin="round" stroke-width="0.5"><title>2024-11-28 1.5km</title><desc>1732753457000</desc></polyline><polyline fill="none" points="166.9356875969097,93.0 153.0643124030903,117.49216575315222 165.73692677775398,130.27900115773082 160.2568773184903,143.36074765765807 161.62688968330622,144.73776361969067 160.42812886368483,147.0" stroke="#4DD2FF" stroke-linecap="round" stroke-linejoin="round" stroke-width="0.5"><title>2024-11-27 1.5km</title><desc>1732667293000</desc></polyline><polyline fill="none" points="33.93818578030914,153.0 43.40243765944615,156.50425689166877 46.37468205112964,158.75056831893744 43.55887157469988,161.6258388599963 33.62531794933602,180.31487608375028 45.20142768602818,192.62427282350836 40.19554239464924,204.48426412494155 41.44701371761039,205.65228521684185 40.82127805612981,207.0" stroke="#4DD2FF" stroke-linecap="round" stroke-linejoin="round" stroke-width="0.5"><title>2024-11-26 1.5km</title><desc>1732580565000</desc></polyline><polyline fill="none" points="101.03634204249829,153.0 105.2646175767295,155.95245902356692 101.86541567649692,159.95255039067706 93.9063087888062,175.3813189503271 106.09369121072814,189.85747013957007 101.20215676911175,198.04782793985214 98.88075059372932,204.33340423816117 100.20726840849966,205.76193859794876 99.54400950111449,207.0" stroke="#4DD2FF" stroke-linecap="round" stroke-linejoin="round" stroke-width="0.5"><title>2024-11-25 1.4km</title><desc>1732494030000</desc></polyline><polyline fill="none" points="164.72687605116516,153.0 155.7935139723122,174.71990435780026 153.53849053522572,177.21068921725964 166.46150946477428,190.16267144784797 160.9106825417839,203.4133736617514 162.21165760187432,204.60891718999483 161.2576092244126,207.0" stroke="#4DD2FF" stroke-linecap="round" stroke-linejoin="round" stroke-width="0.5"><title>2024-11-22 1.4km</title><desc>1732235057000</desc></polyline><polyline fill="none" points="42.28117338242009,213.0 45.051169632934034,217.58590801560786 41.059116213116795,227.59995660826098 33.97118463134393,239.3920651928638 46.02881536819041,251.55837277852697 40.81470477953553,263.8181094978354 41.87382099265233,265.12830099707935 41.30352764762938,267.0" stroke="#4DD2FF" stroke-linecap="round" stroke-linejoin="round" stroke-width="0.5"><title>2024-11-21 1.5km</title><desc>1732147849000</desc></polyline><polyline fill="none" points="104.14312739809975,213.0 106.45371767738834,215.1051436307025 93.54628232307732,237.4376775305136 105.3382603013888,249.79356157156872 100.31870210776106,261.783188017318 101.59351053787395,263.2475592546398 99.36259578540921,267.0" stroke="#4DD2FF" stroke-linecap="round" stroke-linejoin="round" stroke-width="0.5"><title>2024-11-19 1.5km</title><desc>1731974934000</desc></polyline><polyline fill="none" points="171.64597949641757,213.0 174.7610135260038,215.76514618081274 165.13272652565502,232.03052416897845 167.25661336421035,234.38897733198246 162.15928495209664,243.74139757367084 148.42481673136353,260.65680987545056 145.2389864739962,267.0" stroke="#4DD2FF" stroke-linecap="round" stroke-linejoin="round" stroke-width="0.5"><title>2024-11-18 1.4km</title><desc>1731889365000</desc></polyline></svg>